<mxfile host="app.diagrams.net" agent="Mozilla/5.0 (Macintosh; Intel Mac OS X 10_15_7) AppleWebKit/537.36 (KHTML, like Gecko) Chrome/134.0.0.0 Safari/537.36" version="26.1.1">
  <diagram name="Page-1" id="VFj65QAzPsNUZFpsatWj">
    <mxGraphModel dx="1514" dy="997" grid="0" gridSize="10" guides="1" tooltips="1" connect="1" arrows="1" fold="1" page="1" pageScale="1" pageWidth="827" pageHeight="1169" math="0" shadow="0">
      <root>
        <mxCell id="0" />
        <mxCell id="1" parent="0" />
        <mxCell id="16hW8aWgDfImmh0Cn97X-71" value="" style="edgeStyle=orthogonalEdgeStyle;rounded=0;orthogonalLoop=1;jettySize=auto;html=1;exitX=0.5;exitY=1;exitDx=0;exitDy=0;exitPerimeter=0;entryX=0.5;entryY=0;entryDx=0;entryDy=0;" parent="1" source="16hW8aWgDfImmh0Cn97X-78" target="i9rH-VH7goMe6gmp9oEX-1" edge="1">
          <mxGeometry relative="1" as="geometry">
            <mxPoint x="4479.945555555556" y="92.27999999999999" as="sourcePoint" />
            <mxPoint x="4479.93761904762" y="112.27999999999999" as="targetPoint" />
          </mxGeometry>
        </mxCell>
        <mxCell id="3p7yJRifDNwi82YsYZCq-16" value="" style="edgeStyle=orthogonalEdgeStyle;rounded=0;orthogonalLoop=1;jettySize=auto;html=1;" parent="1" source="16hW8aWgDfImmh0Cn97X-51" target="mmGjmohOtIg-gZhR8A6J-3" edge="1">
          <mxGeometry relative="1" as="geometry" />
        </mxCell>
        <mxCell id="16hW8aWgDfImmh0Cn97X-51" value="Ask for which difficulty&lt;div&gt;player wants:&amp;nbsp;&lt;/div&gt;" style="shape=parallelogram;html=1;strokeWidth=2;perimeter=parallelogramPerimeter;whiteSpace=wrap;rounded=1;arcSize=12;size=0.23;" parent="1" vertex="1">
          <mxGeometry x="4404.89" y="357.26" width="185" height="60" as="geometry" />
        </mxCell>
        <mxCell id="16hW8aWgDfImmh0Cn97X-52" value="" style="edgeStyle=orthogonalEdgeStyle;rounded=0;orthogonalLoop=1;jettySize=auto;html=1;" parent="1" source="16hW8aWgDfImmh0Cn97X-54" target="16hW8aWgDfImmh0Cn97X-56" edge="1">
          <mxGeometry relative="1" as="geometry" />
        </mxCell>
        <mxCell id="MnmEK7-N3imYMPAZ-l2H-11" value="Yes" style="edgeLabel;html=1;align=center;verticalAlign=middle;resizable=0;points=[];" parent="16hW8aWgDfImmh0Cn97X-52" vertex="1" connectable="0">
          <mxGeometry x="-0.4828" y="4" relative="1" as="geometry">
            <mxPoint as="offset" />
          </mxGeometry>
        </mxCell>
        <mxCell id="3p7yJRifDNwi82YsYZCq-14" value="No" style="edgeStyle=orthogonalEdgeStyle;rounded=0;orthogonalLoop=1;jettySize=auto;html=1;entryX=0.5;entryY=1;entryDx=0;entryDy=0;" parent="1" source="16hW8aWgDfImmh0Cn97X-54" target="mmGjmohOtIg-gZhR8A6J-6" edge="1">
          <mxGeometry relative="1" as="geometry" />
        </mxCell>
        <mxCell id="16hW8aWgDfImmh0Cn97X-54" value="&lt;font style=&quot;font-size: 14px;&quot;&gt;is input in:&lt;/font&gt;&lt;div&gt;&lt;span style=&quot;font-size: 10px;&quot;&gt;difficulty_info[&quot;hard&quot;][&quot;shortcuts&quot;]&lt;/span&gt;&lt;/div&gt;" style="rhombus;whiteSpace=wrap;html=1;strokeWidth=2;rounded=1;arcSize=12;" parent="1" vertex="1">
          <mxGeometry x="4649.89" y="543.31" width="130" height="119.11" as="geometry" />
        </mxCell>
        <mxCell id="3p7yJRifDNwi82YsYZCq-4" style="edgeStyle=orthogonalEdgeStyle;rounded=0;orthogonalLoop=1;jettySize=auto;html=1;entryX=1;entryY=0.5;entryDx=0;entryDy=0;" parent="1" source="16hW8aWgDfImmh0Cn97X-56" target="16hW8aWgDfImmh0Cn97X-66" edge="1">
          <mxGeometry relative="1" as="geometry">
            <Array as="points">
              <mxPoint x="4714.89" y="851.5" />
            </Array>
          </mxGeometry>
        </mxCell>
        <mxCell id="16hW8aWgDfImmh0Cn97X-56" value="&lt;span style=&quot;font-size: 14px;&quot;&gt;Set target list to the&amp;nbsp;&lt;/span&gt;&lt;br style=&quot;font-size: 14px;&quot;&gt;&lt;span style=&quot;font-size: 14px;&quot;&gt;Hard word list&lt;/span&gt;" style="whiteSpace=wrap;html=1;strokeWidth=2;rounded=1;arcSize=12;" parent="1" vertex="1">
          <mxGeometry x="4632.39" y="711.8599999999999" width="165" height="60" as="geometry" />
        </mxCell>
        <mxCell id="3p7yJRifDNwi82YsYZCq-2" value="" style="edgeStyle=orthogonalEdgeStyle;rounded=0;orthogonalLoop=1;jettySize=auto;html=1;" parent="1" source="16hW8aWgDfImmh0Cn97X-58" target="16hW8aWgDfImmh0Cn97X-66" edge="1">
          <mxGeometry relative="1" as="geometry" />
        </mxCell>
        <mxCell id="16hW8aWgDfImmh0Cn97X-58" value="&lt;font style=&quot;font-size: 14px;&quot;&gt;Set target list to the&amp;nbsp;&lt;br&gt;Medium word list&lt;/font&gt;" style="whiteSpace=wrap;html=1;strokeWidth=2;rounded=1;arcSize=12;" parent="1" vertex="1">
          <mxGeometry x="4419.89" y="708.25" width="180" height="62.25" as="geometry" />
        </mxCell>
        <mxCell id="3p7yJRifDNwi82YsYZCq-3" style="edgeStyle=orthogonalEdgeStyle;rounded=0;orthogonalLoop=1;jettySize=auto;html=1;entryX=0;entryY=0.5;entryDx=0;entryDy=0;" parent="1" source="16hW8aWgDfImmh0Cn97X-60" target="16hW8aWgDfImmh0Cn97X-66" edge="1">
          <mxGeometry relative="1" as="geometry">
            <Array as="points">
              <mxPoint x="4289.89" y="851.5" />
            </Array>
          </mxGeometry>
        </mxCell>
        <mxCell id="16hW8aWgDfImmh0Cn97X-60" value="&lt;span style=&quot;font-size: 14px;&quot;&gt;Set target list to the&amp;nbsp;&lt;/span&gt;&lt;br style=&quot;font-size: 14px;&quot;&gt;&lt;span style=&quot;font-size: 14px;&quot;&gt;Easy word list&lt;/span&gt;" style="whiteSpace=wrap;html=1;strokeWidth=2;rounded=1;arcSize=12;" parent="1" vertex="1">
          <mxGeometry x="4209.89" y="708.25" width="180" height="62.25" as="geometry" />
        </mxCell>
        <mxCell id="16hW8aWgDfImmh0Cn97X-62" value="Yes" style="edgeStyle=orthogonalEdgeStyle;rounded=0;orthogonalLoop=1;jettySize=auto;html=1;" parent="1" source="16hW8aWgDfImmh0Cn97X-63" target="16hW8aWgDfImmh0Cn97X-58" edge="1">
          <mxGeometry relative="1" as="geometry" />
        </mxCell>
        <mxCell id="3p7yJRifDNwi82YsYZCq-12" value="" style="edgeStyle=orthogonalEdgeStyle;rounded=0;orthogonalLoop=1;jettySize=auto;html=1;" parent="1" source="16hW8aWgDfImmh0Cn97X-63" target="16hW8aWgDfImmh0Cn97X-54" edge="1">
          <mxGeometry relative="1" as="geometry" />
        </mxCell>
        <mxCell id="3p7yJRifDNwi82YsYZCq-13" value="No" style="edgeLabel;html=1;align=center;verticalAlign=middle;resizable=0;points=[];" parent="3p7yJRifDNwi82YsYZCq-12" vertex="1" connectable="0">
          <mxGeometry x="0.1561" y="-4" relative="1" as="geometry">
            <mxPoint as="offset" />
          </mxGeometry>
        </mxCell>
        <mxCell id="16hW8aWgDfImmh0Cn97X-63" value="&lt;font style=&quot;font-size: 14px;&quot;&gt;is input in:&lt;/font&gt;&lt;div&gt;&lt;span style=&quot;font-size: 10px;&quot;&gt;difficulty_info[&quot;medium&quot;][&quot;shortcuts&quot;]&lt;/span&gt;&lt;/div&gt;" style="rhombus;whiteSpace=wrap;html=1;strokeWidth=2;rounded=1;arcSize=12;direction=south;" parent="1" vertex="1">
          <mxGeometry x="4445.14" y="542.6099999999999" width="129.5" height="120.5" as="geometry" />
        </mxCell>
        <mxCell id="16hW8aWgDfImmh0Cn97X-64" value="Yes" style="edgeStyle=orthogonalEdgeStyle;rounded=0;orthogonalLoop=1;jettySize=auto;html=1;" parent="1" source="16hW8aWgDfImmh0Cn97X-65" target="16hW8aWgDfImmh0Cn97X-60" edge="1">
          <mxGeometry relative="1" as="geometry" />
        </mxCell>
        <mxCell id="3p7yJRifDNwi82YsYZCq-11" value="No" style="edgeStyle=orthogonalEdgeStyle;rounded=0;orthogonalLoop=1;jettySize=auto;html=1;" parent="1" source="16hW8aWgDfImmh0Cn97X-65" target="16hW8aWgDfImmh0Cn97X-63" edge="1">
          <mxGeometry relative="1" as="geometry" />
        </mxCell>
        <mxCell id="16hW8aWgDfImmh0Cn97X-65" value="&lt;font style=&quot;font-size: 14px;&quot;&gt;is input in:&lt;/font&gt;&lt;div&gt;&lt;font style=&quot;font-size: 10px;&quot;&gt;difficulty_info[&quot;easy&quot;][&quot;shortcuts&quot;]&lt;/font&gt;&lt;/div&gt;" style="rhombus;whiteSpace=wrap;html=1;strokeWidth=2;rounded=1;arcSize=12;direction=south;" parent="1" vertex="1">
          <mxGeometry x="4234.89" y="542.6099999999999" width="130" height="116.89" as="geometry" />
        </mxCell>
        <mxCell id="3p7yJRifDNwi82YsYZCq-5" value="" style="edgeStyle=orthogonalEdgeStyle;rounded=0;orthogonalLoop=1;jettySize=auto;html=1;" parent="1" source="16hW8aWgDfImmh0Cn97X-66" target="16hW8aWgDfImmh0Cn97X-75" edge="1">
          <mxGeometry relative="1" as="geometry" />
        </mxCell>
        <mxCell id="16hW8aWgDfImmh0Cn97X-66" value="&lt;font style=&quot;font-size: 14px;&quot;&gt;Set the &lt;i&gt;target_word &lt;/i&gt;as a random element of the target list&lt;/font&gt;" style="rounded=1;whiteSpace=wrap;html=1;absoluteArcSize=1;arcSize=14;strokeWidth=2;" parent="1" vertex="1">
          <mxGeometry x="4419.89" y="820.5" width="180" height="62" as="geometry" />
        </mxCell>
        <mxCell id="mmGjmohOtIg-gZhR8A6J-18" value="" style="edgeStyle=orthogonalEdgeStyle;rounded=0;orthogonalLoop=1;jettySize=auto;html=1;" parent="1" source="16hW8aWgDfImmh0Cn97X-75" target="16hW8aWgDfImmh0Cn97X-80" edge="1">
          <mxGeometry relative="1" as="geometry" />
        </mxCell>
        <mxCell id="16hW8aWgDfImmh0Cn97X-75" value="&lt;font style=&quot;font-size: 14px;&quot;&gt;Set &lt;i&gt;total_points&lt;/i&gt; to the first term of the corresponding tuple to the difficulty&lt;/font&gt;" style="rounded=1;whiteSpace=wrap;html=1;absoluteArcSize=1;arcSize=14;strokeWidth=2;" parent="1" vertex="1">
          <mxGeometry x="4400.89" y="940.5000000000002" width="218" height="70" as="geometry" />
        </mxCell>
        <mxCell id="16hW8aWgDfImmh0Cn97X-78" value="Choose difficulty" style="strokeWidth=2;html=1;shape=mxgraph.flowchart.start_2;whiteSpace=wrap;" parent="1" vertex="1">
          <mxGeometry x="4429.89" y="34.77999999999998" width="100" height="57.5" as="geometry" />
        </mxCell>
        <mxCell id="16hW8aWgDfImmh0Cn97X-80" value="Return (target_word,total_points)" style="strokeWidth=2;html=1;shape=mxgraph.flowchart.start_2;whiteSpace=wrap;" parent="1" vertex="1">
          <mxGeometry x="4429.89" y="1052.9999999999998" width="160" height="60" as="geometry" />
        </mxCell>
        <mxCell id="MnmEK7-N3imYMPAZ-l2H-24" value="" style="edgeStyle=orthogonalEdgeStyle;rounded=0;orthogonalLoop=1;jettySize=auto;html=1;" parent="1" source="MnmEK7-N3imYMPAZ-l2H-10" target="MnmEK7-N3imYMPAZ-l2H-23" edge="1">
          <mxGeometry relative="1" as="geometry" />
        </mxCell>
        <mxCell id="MnmEK7-N3imYMPAZ-l2H-160" value="Yes" style="edgeLabel;html=1;align=center;verticalAlign=middle;resizable=0;points=[];" parent="MnmEK7-N3imYMPAZ-l2H-24" vertex="1" connectable="0">
          <mxGeometry x="0.13" y="-1" relative="1" as="geometry">
            <mxPoint as="offset" />
          </mxGeometry>
        </mxCell>
        <mxCell id="MnmEK7-N3imYMPAZ-l2H-34" value="" style="edgeStyle=orthogonalEdgeStyle;rounded=0;orthogonalLoop=1;jettySize=auto;html=1;" parent="1" source="MnmEK7-N3imYMPAZ-l2H-10" target="MnmEK7-N3imYMPAZ-l2H-33" edge="1">
          <mxGeometry relative="1" as="geometry" />
        </mxCell>
        <mxCell id="MnmEK7-N3imYMPAZ-l2H-38" value="No" style="edgeLabel;html=1;align=center;verticalAlign=middle;resizable=0;points=[];" parent="MnmEK7-N3imYMPAZ-l2H-34" vertex="1" connectable="0">
          <mxGeometry x="-0.4902" y="3" relative="1" as="geometry">
            <mxPoint as="offset" />
          </mxGeometry>
        </mxCell>
        <mxCell id="MnmEK7-N3imYMPAZ-l2H-10" value="Is &lt;i&gt;guess &lt;/i&gt;length&lt;div&gt;&amp;nbsp;more than 1?&lt;/div&gt;" style="strokeWidth=2;html=1;shape=mxgraph.flowchart.decision;whiteSpace=wrap;" parent="1" vertex="1">
          <mxGeometry x="1681.75" y="70.61000000000001" width="143" height="80" as="geometry" />
        </mxCell>
        <mxCell id="MnmEK7-N3imYMPAZ-l2H-68" style="edgeStyle=orthogonalEdgeStyle;rounded=0;orthogonalLoop=1;jettySize=auto;html=1;entryX=0;entryY=0.5;entryDx=0;entryDy=0;exitX=1;exitY=0.5;exitDx=0;exitDy=0;exitPerimeter=0;" parent="1" source="MnmEK7-N3imYMPAZ-l2H-23" target="MnmEK7-N3imYMPAZ-l2H-67" edge="1">
          <mxGeometry relative="1" as="geometry">
            <Array as="points">
              <mxPoint x="1989" y="112.00000000000001" />
            </Array>
          </mxGeometry>
        </mxCell>
        <mxCell id="i9rH-VH7goMe6gmp9oEX-59" value="No" style="edgeLabel;html=1;align=center;verticalAlign=middle;resizable=0;points=[];" vertex="1" connectable="0" parent="MnmEK7-N3imYMPAZ-l2H-68">
          <mxGeometry x="-0.1241" y="-2" relative="1" as="geometry">
            <mxPoint as="offset" />
          </mxGeometry>
        </mxCell>
        <mxCell id="MnmEK7-N3imYMPAZ-l2H-23" value="Is &lt;i&gt;guess &lt;/i&gt;== &lt;i&gt;targetWord&lt;/i&gt;" style="strokeWidth=2;html=1;shape=mxgraph.flowchart.decision;whiteSpace=wrap;" parent="1" vertex="1">
          <mxGeometry x="1877" y="70.61" width="112" height="80" as="geometry" />
        </mxCell>
        <mxCell id="MnmEK7-N3imYMPAZ-l2H-60" value="" style="edgeStyle=orthogonalEdgeStyle;rounded=0;orthogonalLoop=1;jettySize=auto;html=1;" parent="1" edge="1">
          <mxGeometry relative="1" as="geometry">
            <mxPoint x="2241.047619047619" y="125.5" as="sourcePoint" />
          </mxGeometry>
        </mxCell>
        <mxCell id="3p7yJRifDNwi82YsYZCq-20" style="edgeStyle=orthogonalEdgeStyle;rounded=0;orthogonalLoop=1;jettySize=auto;html=1;entryX=0;entryY=0.5;entryDx=0;entryDy=0;" parent="1" source="MnmEK7-N3imYMPAZ-l2H-33" target="i9rH-VH7goMe6gmp9oEX-51" edge="1">
          <mxGeometry relative="1" as="geometry" />
        </mxCell>
        <mxCell id="3p7yJRifDNwi82YsYZCq-21" value="Yes" style="edgeLabel;html=1;align=center;verticalAlign=middle;resizable=0;points=[];" parent="3p7yJRifDNwi82YsYZCq-20" vertex="1" connectable="0">
          <mxGeometry x="-0.3871" y="-5" relative="1" as="geometry">
            <mxPoint x="1" as="offset" />
          </mxGeometry>
        </mxCell>
        <mxCell id="3p7yJRifDNwi82YsYZCq-22" style="edgeStyle=orthogonalEdgeStyle;rounded=0;orthogonalLoop=1;jettySize=auto;html=1;entryX=0.5;entryY=0;entryDx=0;entryDy=0;" parent="1" source="MnmEK7-N3imYMPAZ-l2H-33" target="MnmEK7-N3imYMPAZ-l2H-39" edge="1">
          <mxGeometry relative="1" as="geometry">
            <Array as="points">
              <mxPoint x="1754" y="235.11000000000013" />
              <mxPoint x="1754" y="347" />
            </Array>
          </mxGeometry>
        </mxCell>
        <mxCell id="i9rH-VH7goMe6gmp9oEX-57" value="No" style="edgeLabel;html=1;align=center;verticalAlign=middle;resizable=0;points=[];" vertex="1" connectable="0" parent="3p7yJRifDNwi82YsYZCq-22">
          <mxGeometry x="-0.3396" y="-1" relative="1" as="geometry">
            <mxPoint as="offset" />
          </mxGeometry>
        </mxCell>
        <mxCell id="MnmEK7-N3imYMPAZ-l2H-33" value="Is &lt;i&gt;guess &lt;/i&gt;in&amp;nbsp;&lt;div&gt;&lt;i&gt;guessed&amp;nbsp;&lt;/i&gt;&lt;span style=&quot;background-color: transparent; color: light-dark(rgb(0, 0, 0), rgb(255, 255, 255));&quot;&gt;set?&lt;/span&gt;&lt;/div&gt;" style="rhombus;whiteSpace=wrap;html=1;strokeWidth=2;" parent="1" vertex="1">
          <mxGeometry x="1698.25" y="197.61" width="112" height="75" as="geometry" />
        </mxCell>
        <mxCell id="3p7yJRifDNwi82YsYZCq-18" value="" style="edgeStyle=orthogonalEdgeStyle;rounded=0;orthogonalLoop=1;jettySize=auto;html=1;entryX=0;entryY=0.5;entryDx=0;entryDy=0;" parent="1" source="MnmEK7-N3imYMPAZ-l2H-39" target="MnmEK7-N3imYMPAZ-l2H-45" edge="1">
          <mxGeometry relative="1" as="geometry">
            <mxPoint x="2087" y="462" as="targetPoint" />
          </mxGeometry>
        </mxCell>
        <mxCell id="3p7yJRifDNwi82YsYZCq-19" value="No" style="edgeLabel;html=1;align=center;verticalAlign=middle;resizable=0;points=[];" parent="3p7yJRifDNwi82YsYZCq-18" vertex="1" connectable="0">
          <mxGeometry x="-0.08" y="2" relative="1" as="geometry">
            <mxPoint x="-1" y="5" as="offset" />
          </mxGeometry>
        </mxCell>
        <mxCell id="i9rH-VH7goMe6gmp9oEX-66" style="edgeStyle=orthogonalEdgeStyle;rounded=0;orthogonalLoop=1;jettySize=auto;html=1;entryX=0.25;entryY=0;entryDx=0;entryDy=0;" edge="1" parent="1" source="MnmEK7-N3imYMPAZ-l2H-39" target="i9rH-VH7goMe6gmp9oEX-65">
          <mxGeometry relative="1" as="geometry" />
        </mxCell>
        <mxCell id="MnmEK7-N3imYMPAZ-l2H-39" value="Is the guessed letter&lt;div&gt;in the target word?&lt;/div&gt;" style="rhombus;whiteSpace=wrap;html=1;strokeWidth=2;" parent="1" vertex="1">
          <mxGeometry x="1679.25" y="305" width="148" height="100" as="geometry" />
        </mxCell>
        <mxCell id="i9rH-VH7goMe6gmp9oEX-61" style="edgeStyle=orthogonalEdgeStyle;rounded=0;orthogonalLoop=1;jettySize=auto;html=1;entryX=0;entryY=0.5;entryDx=0;entryDy=0;exitX=1;exitY=0.5;exitDx=0;exitDy=0;" edge="1" parent="1" source="MnmEK7-N3imYMPAZ-l2H-45" target="i9rH-VH7goMe6gmp9oEX-58">
          <mxGeometry relative="1" as="geometry">
            <Array as="points" />
          </mxGeometry>
        </mxCell>
        <mxCell id="MnmEK7-N3imYMPAZ-l2H-45" value="Add &lt;i&gt;guess &lt;/i&gt;into the &lt;i&gt;guessed &lt;/i&gt;set" style="rounded=1;whiteSpace=wrap;html=1;absoluteArcSize=1;arcSize=14;strokeWidth=2;fontSize=14;" parent="1" vertex="1">
          <mxGeometry x="1893" y="337.7300000000001" width="134.75" height="39.14" as="geometry" />
        </mxCell>
        <mxCell id="MnmEK7-N3imYMPAZ-l2H-59" value="" style="edgeStyle=orthogonalEdgeStyle;rounded=0;orthogonalLoop=1;jettySize=auto;html=1;" parent="1" source="MnmEK7-N3imYMPAZ-l2H-57" target="MnmEK7-N3imYMPAZ-l2H-10" edge="1">
          <mxGeometry relative="1" as="geometry" />
        </mxCell>
        <mxCell id="MnmEK7-N3imYMPAZ-l2H-57" value="&lt;font style=&quot;font-size: 14px;&quot;&gt;process_guess(guess)&lt;/font&gt;" style="ellipse;whiteSpace=wrap;html=1;" parent="1" vertex="1">
          <mxGeometry x="1668" y="8" width="172.5" height="45.5" as="geometry" />
        </mxCell>
        <mxCell id="i9rH-VH7goMe6gmp9oEX-60" style="edgeStyle=orthogonalEdgeStyle;rounded=0;orthogonalLoop=1;jettySize=auto;html=1;entryX=0.5;entryY=0;entryDx=0;entryDy=0;exitX=0.5;exitY=1;exitDx=0;exitDy=0;" edge="1" parent="1" source="i9rH-VH7goMe6gmp9oEX-63" target="i9rH-VH7goMe6gmp9oEX-58">
          <mxGeometry relative="1" as="geometry" />
        </mxCell>
        <mxCell id="i9rH-VH7goMe6gmp9oEX-64" style="edgeStyle=orthogonalEdgeStyle;rounded=0;orthogonalLoop=1;jettySize=auto;html=1;" edge="1" parent="1" source="MnmEK7-N3imYMPAZ-l2H-67" target="i9rH-VH7goMe6gmp9oEX-63">
          <mxGeometry relative="1" as="geometry" />
        </mxCell>
        <mxCell id="MnmEK7-N3imYMPAZ-l2H-67" value="Add &lt;i&gt;guess &lt;/i&gt;into the &lt;i&gt;guessed &lt;/i&gt;set" style="rounded=1;whiteSpace=wrap;html=1;absoluteArcSize=1;arcSize=14;strokeWidth=2;" parent="1" vertex="1">
          <mxGeometry x="2055" y="97" width="148" height="30" as="geometry" />
        </mxCell>
        <mxCell id="MnmEK7-N3imYMPAZ-l2H-76" value="" style="edgeStyle=orthogonalEdgeStyle;rounded=0;orthogonalLoop=1;jettySize=auto;html=1;entryX=0.5;entryY=0;entryDx=0;entryDy=0;entryPerimeter=0;" parent="1" source="MnmEK7-N3imYMPAZ-l2H-74" target="i9rH-VH7goMe6gmp9oEX-45" edge="1">
          <mxGeometry relative="1" as="geometry">
            <mxPoint x="988.5" y="120.00000000000001" as="targetPoint" />
          </mxGeometry>
        </mxCell>
        <mxCell id="MnmEK7-N3imYMPAZ-l2H-74" value="checkForEnd" style="strokeWidth=2;html=1;shape=mxgraph.flowchart.start_2;whiteSpace=wrap;" parent="1" vertex="1">
          <mxGeometry x="911" y="18.39" width="100" height="60" as="geometry" />
        </mxCell>
        <mxCell id="MnmEK7-N3imYMPAZ-l2H-80" value="" style="edgeStyle=orthogonalEdgeStyle;rounded=0;orthogonalLoop=1;jettySize=auto;html=1;" parent="1" source="MnmEK7-N3imYMPAZ-l2H-77" target="MnmEK7-N3imYMPAZ-l2H-79" edge="1">
          <mxGeometry relative="1" as="geometry" />
        </mxCell>
        <mxCell id="MnmEK7-N3imYMPAZ-l2H-89" value="Yes" style="edgeLabel;html=1;align=center;verticalAlign=middle;resizable=0;points=[];" parent="MnmEK7-N3imYMPAZ-l2H-80" vertex="1" connectable="0">
          <mxGeometry x="-0.5111" y="1" relative="1" as="geometry">
            <mxPoint as="offset" />
          </mxGeometry>
        </mxCell>
        <mxCell id="MnmEK7-N3imYMPAZ-l2H-82" value="" style="edgeStyle=orthogonalEdgeStyle;rounded=0;orthogonalLoop=1;jettySize=auto;html=1;entryX=0.5;entryY=0;entryDx=0;entryDy=0;" parent="1" source="MnmEK7-N3imYMPAZ-l2H-77" target="MnmEK7-N3imYMPAZ-l2H-83" edge="1">
          <mxGeometry relative="1" as="geometry">
            <mxPoint x="961.5" y="324.61" as="targetPoint" />
          </mxGeometry>
        </mxCell>
        <mxCell id="MnmEK7-N3imYMPAZ-l2H-90" value="No" style="edgeLabel;html=1;align=center;verticalAlign=middle;resizable=0;points=[];" parent="MnmEK7-N3imYMPAZ-l2H-82" vertex="1" connectable="0">
          <mxGeometry x="-0.6211" relative="1" as="geometry">
            <mxPoint as="offset" />
          </mxGeometry>
        </mxCell>
        <mxCell id="MnmEK7-N3imYMPAZ-l2H-77" value="Is the remaining&lt;div&gt;points less than or&lt;/div&gt;&lt;div&gt;&amp;nbsp;equal to 0?&lt;/div&gt;" style="strokeWidth=2;html=1;shape=mxgraph.flowchart.decision;whiteSpace=wrap;" parent="1" vertex="1">
          <mxGeometry x="886.5" y="225.5" width="150" height="100" as="geometry" />
        </mxCell>
        <mxCell id="MnmEK7-N3imYMPAZ-l2H-79" value="Return (True, &quot;L&quot;" style="strokeWidth=2;html=1;shape=mxgraph.flowchart.start_2;whiteSpace=wrap;" parent="1" vertex="1">
          <mxGeometry x="1235.5" y="205.25000000000006" width="100" height="60" as="geometry" />
        </mxCell>
        <mxCell id="MnmEK7-N3imYMPAZ-l2H-85" value="" style="edgeStyle=orthogonalEdgeStyle;rounded=0;orthogonalLoop=1;jettySize=auto;html=1;" parent="1" source="MnmEK7-N3imYMPAZ-l2H-83" target="MnmEK7-N3imYMPAZ-l2H-84" edge="1">
          <mxGeometry relative="1" as="geometry" />
        </mxCell>
        <mxCell id="MnmEK7-N3imYMPAZ-l2H-83" value="sort the word alphabetically, and sort the guess list alphabetically" style="rounded=1;whiteSpace=wrap;html=1;absoluteArcSize=1;arcSize=14;strokeWidth=2;" parent="1" vertex="1">
          <mxGeometry x="854.75" y="371.61" width="213.5" height="70" as="geometry" />
        </mxCell>
        <mxCell id="MnmEK7-N3imYMPAZ-l2H-88" value="" style="edgeStyle=orthogonalEdgeStyle;rounded=0;orthogonalLoop=1;jettySize=auto;html=1;exitX=1;exitY=0.5;exitDx=0;exitDy=0;" parent="1" source="MnmEK7-N3imYMPAZ-l2H-84" target="MnmEK7-N3imYMPAZ-l2H-87" edge="1">
          <mxGeometry relative="1" as="geometry">
            <Array as="points">
              <mxPoint x="1164.5" y="522.5" />
              <mxPoint x="1164.5" y="328.5" />
            </Array>
          </mxGeometry>
        </mxCell>
        <mxCell id="MnmEK7-N3imYMPAZ-l2H-91" value="Yes" style="edgeLabel;html=1;align=center;verticalAlign=middle;resizable=0;points=[];" parent="MnmEK7-N3imYMPAZ-l2H-88" vertex="1" connectable="0">
          <mxGeometry x="-0.2997" y="2" relative="1" as="geometry">
            <mxPoint as="offset" />
          </mxGeometry>
        </mxCell>
        <mxCell id="MnmEK7-N3imYMPAZ-l2H-93" value="" style="edgeStyle=orthogonalEdgeStyle;rounded=0;orthogonalLoop=1;jettySize=auto;html=1;" parent="1" source="MnmEK7-N3imYMPAZ-l2H-84" target="MnmEK7-N3imYMPAZ-l2H-92" edge="1">
          <mxGeometry relative="1" as="geometry">
            <Array as="points">
              <mxPoint x="959.5" y="597.5" />
              <mxPoint x="1282.5" y="597.5" />
            </Array>
          </mxGeometry>
        </mxCell>
        <mxCell id="MnmEK7-N3imYMPAZ-l2H-106" value="No" style="edgeLabel;html=1;align=center;verticalAlign=middle;resizable=0;points=[];" parent="MnmEK7-N3imYMPAZ-l2H-93" vertex="1" connectable="0">
          <mxGeometry x="-0.2986" relative="1" as="geometry">
            <mxPoint y="-1" as="offset" />
          </mxGeometry>
        </mxCell>
        <mxCell id="MnmEK7-N3imYMPAZ-l2H-84" value="&lt;div style=&quot;&quot;&gt;&lt;span style=&quot;background-color: transparent; color: light-dark(rgb(0, 0, 0), rgb(255, 255, 255));&quot;&gt;&lt;font style=&quot;font-size: 11px;&quot;&gt;Is the sorted version of&lt;/font&gt;&lt;/span&gt;&lt;/div&gt;&lt;div style=&quot;&quot;&gt;&lt;span style=&quot;background-color: transparent; color: light-dark(rgb(0, 0, 0), rgb(255, 255, 255));&quot;&gt;&lt;font style=&quot;font-size: 11px;&quot;&gt;&amp;nbsp;the word contained&lt;/font&gt;&lt;/span&gt;&lt;/div&gt;&lt;div style=&quot;&quot;&gt;&lt;span style=&quot;background-color: transparent; color: light-dark(rgb(0, 0, 0), rgb(255, 255, 255));&quot;&gt;&lt;font style=&quot;font-size: 11px;&quot;&gt;&amp;nbsp;in the guess list?&amp;nbsp;&lt;/font&gt;&lt;/span&gt;&lt;span style=&quot;font-size: 11px; background-color: transparent; color: light-dark(rgb(0, 0, 0), rgb(255, 255, 255));&quot;&gt;(i.e. has the player&amp;nbsp;&lt;/span&gt;&lt;/div&gt;&lt;div style=&quot;&quot;&gt;&lt;font style=&quot;font-size: 11px;&quot;&gt;guessed all of&amp;nbsp;&lt;/font&gt;&lt;/div&gt;&lt;div style=&quot;&quot;&gt;&lt;font style=&quot;font-size: 11px;&quot;&gt;the required letters)&lt;/font&gt;&lt;/div&gt;" style="rhombus;whiteSpace=wrap;html=1;rounded=1;arcSize=0;strokeWidth=2;align=center;" parent="1" vertex="1">
          <mxGeometry x="827" y="464.5" width="266" height="115" as="geometry" />
        </mxCell>
        <mxCell id="MnmEK7-N3imYMPAZ-l2H-87" value="Return (True, &quot;W&quot;" style="strokeWidth=2;html=1;shape=mxgraph.flowchart.start_2;whiteSpace=wrap;" parent="1" vertex="1">
          <mxGeometry x="1235.5" y="298.39000000000004" width="100" height="60" as="geometry" />
        </mxCell>
        <mxCell id="MnmEK7-N3imYMPAZ-l2H-92" value="Return (False, &quot;-&quot;)" style="ellipse;whiteSpace=wrap;html=1;rounded=1;arcSize=0;strokeWidth=2;" parent="1" vertex="1">
          <mxGeometry x="1222.5" y="375.36" width="120" height="66.25" as="geometry" />
        </mxCell>
        <mxCell id="MnmEK7-N3imYMPAZ-l2H-99" value="" style="strokeWidth=2;html=1;shape=mxgraph.flowchart.annotation_2;align=left;labelPosition=right;pointerEvents=1;rotation=-180;" parent="1" vertex="1">
          <mxGeometry x="1379.5" y="97" width="50" height="342" as="geometry" />
        </mxCell>
        <mxCell id="MnmEK7-N3imYMPAZ-l2H-100" value="The tuples are in the following format:&lt;br&gt;The first term defines if the game is over:&lt;div&gt;&amp;nbsp;True == Game has ended&amp;nbsp;False == Game is still going&lt;br&gt;the second term tells how the game ended:&amp;nbsp;&lt;br&gt;&quot;W&quot; == Win, &quot;L&quot; == Loss, &quot;Q&quot; == Quit &quot;-&quot; == has not ended&lt;/div&gt;" style="text;html=1;align=center;verticalAlign=middle;whiteSpace=wrap;rounded=0;fontSize=11;" parent="1" vertex="1">
          <mxGeometry x="1448.5" y="265.25" width="205" height="30" as="geometry" />
        </mxCell>
        <mxCell id="mmGjmohOtIg-gZhR8A6J-5" value="" style="edgeStyle=orthogonalEdgeStyle;rounded=0;orthogonalLoop=1;jettySize=auto;html=1;" parent="1" source="mmGjmohOtIg-gZhR8A6J-3" target="mmGjmohOtIg-gZhR8A6J-4" edge="1">
          <mxGeometry relative="1" as="geometry" />
        </mxCell>
        <mxCell id="mmGjmohOtIg-gZhR8A6J-3" value="lowercase the response" style="rounded=1;whiteSpace=wrap;html=1;absoluteArcSize=1;arcSize=14;strokeWidth=2;" parent="1" vertex="1">
          <mxGeometry x="4447.39" y="447.26" width="100" height="40" as="geometry" />
        </mxCell>
        <mxCell id="3p7yJRifDNwi82YsYZCq-9" value="" style="edgeStyle=orthogonalEdgeStyle;rounded=0;orthogonalLoop=1;jettySize=auto;html=1;" parent="1" source="mmGjmohOtIg-gZhR8A6J-4" target="16hW8aWgDfImmh0Cn97X-65" edge="1">
          <mxGeometry relative="1" as="geometry" />
        </mxCell>
        <mxCell id="mmGjmohOtIg-gZhR8A6J-4" value="&lt;font style=&quot;background-color: light-dark(#ffffff, var(--ge-dark-color, #121212));&quot; face=&quot;Helvetica&quot;&gt;is t&lt;span&gt;he input in:&lt;/span&gt;&lt;br&gt;&lt;/font&gt;&lt;div style=&quot;line-height: 18px; white-space: pre;&quot;&gt;&lt;font style=&quot;background-color: light-dark(#ffffff, var(--ge-dark-color, #121212));&quot; face=&quot;Helvetica&quot;&gt;[&quot;e&quot;,&#39;m&#39;,&#39;h&#39;,&#39;easy&#39;,&lt;/font&gt;&lt;/div&gt;&lt;div style=&quot;line-height: 18px; white-space: pre;&quot;&gt;&lt;font style=&quot;background-color: light-dark(#ffffff, var(--ge-dark-color, #121212));&quot; face=&quot;Helvetica&quot;&gt;&#39;medium&#39;,&#39;hard&#39;]&lt;/font&gt;&lt;/div&gt;" style="strokeWidth=2;html=1;shape=mxgraph.flowchart.decision;whiteSpace=wrap;" parent="1" vertex="1">
          <mxGeometry x="4225.64" y="415.8900000000001" width="148.5" height="100" as="geometry" />
        </mxCell>
        <mxCell id="3p7yJRifDNwi82YsYZCq-17" style="edgeStyle=orthogonalEdgeStyle;rounded=0;orthogonalLoop=1;jettySize=auto;html=1;entryX=1;entryY=0.5;entryDx=0;entryDy=0;" parent="1" source="mmGjmohOtIg-gZhR8A6J-6" target="16hW8aWgDfImmh0Cn97X-51" edge="1">
          <mxGeometry relative="1" as="geometry">
            <Array as="points">
              <mxPoint x="4719.89" y="387.3900000000001" />
            </Array>
          </mxGeometry>
        </mxCell>
        <mxCell id="mmGjmohOtIg-gZhR8A6J-6" value="Display,&amp;nbsp;&lt;br&gt;&lt;i&gt;Invalid Difficulty, try again.&lt;/i&gt;" style="shape=parallelogram;html=1;strokeWidth=2;perimeter=parallelogramPerimeter;whiteSpace=wrap;rounded=1;arcSize=12;size=0.23;" parent="1" vertex="1">
          <mxGeometry x="4602.14" y="429.75" width="225.5" height="47.5" as="geometry" />
        </mxCell>
        <mxCell id="i9rH-VH7goMe6gmp9oEX-2" style="edgeStyle=orthogonalEdgeStyle;rounded=0;orthogonalLoop=1;jettySize=auto;html=1;entryX=0;entryY=0.5;entryDx=0;entryDy=0;entryPerimeter=0;" edge="1" parent="1" source="i9rH-VH7goMe6gmp9oEX-1" target="i9rH-VH7goMe6gmp9oEX-3">
          <mxGeometry relative="1" as="geometry">
            <mxPoint x="4618.659230769231" y="141.8900000000001" as="targetPoint" />
          </mxGeometry>
        </mxCell>
        <mxCell id="i9rH-VH7goMe6gmp9oEX-4" value="if the file&amp;nbsp;&lt;div&gt;doesnt exist&lt;/div&gt;" style="edgeLabel;html=1;align=center;verticalAlign=middle;resizable=0;points=[];" vertex="1" connectable="0" parent="i9rH-VH7goMe6gmp9oEX-2">
          <mxGeometry x="0.0341" relative="1" as="geometry">
            <mxPoint as="offset" />
          </mxGeometry>
        </mxCell>
        <mxCell id="i9rH-VH7goMe6gmp9oEX-7" style="edgeStyle=orthogonalEdgeStyle;rounded=0;orthogonalLoop=1;jettySize=auto;html=1;entryX=0;entryY=0.75;entryDx=0;entryDy=0;" edge="1" parent="1" source="i9rH-VH7goMe6gmp9oEX-1" target="i9rH-VH7goMe6gmp9oEX-6">
          <mxGeometry relative="1" as="geometry" />
        </mxCell>
        <mxCell id="i9rH-VH7goMe6gmp9oEX-8" value="If no problems&lt;div&gt;&amp;nbsp;are raised&lt;/div&gt;" style="edgeLabel;html=1;align=center;verticalAlign=middle;resizable=0;points=[];" vertex="1" connectable="0" parent="i9rH-VH7goMe6gmp9oEX-7">
          <mxGeometry x="-0.1062" relative="1" as="geometry">
            <mxPoint x="24" as="offset" />
          </mxGeometry>
        </mxCell>
        <mxCell id="i9rH-VH7goMe6gmp9oEX-1" value="&lt;i&gt;game_data&lt;/i&gt;= use_data(&quot;&lt;br&gt;all_words_info.json&quot;)" style="shape=process;whiteSpace=wrap;html=1;backgroundOutline=1;" vertex="1" parent="1">
          <mxGeometry x="4389.89" y="116.39000000000011" width="184" height="51" as="geometry" />
        </mxCell>
        <mxCell id="i9rH-VH7goMe6gmp9oEX-3" value="End program&lt;div&gt;(raise System Exit&lt;/div&gt;" style="strokeWidth=2;html=1;shape=mxgraph.flowchart.start_2;whiteSpace=wrap;" vertex="1" parent="1">
          <mxGeometry x="4686.89" y="111.89000000000011" width="132" height="60" as="geometry" />
        </mxCell>
        <mxCell id="i9rH-VH7goMe6gmp9oEX-10" value="" style="edgeStyle=orthogonalEdgeStyle;rounded=0;orthogonalLoop=1;jettySize=auto;html=1;" edge="1" parent="1" source="i9rH-VH7goMe6gmp9oEX-6" target="i9rH-VH7goMe6gmp9oEX-9">
          <mxGeometry relative="1" as="geometry" />
        </mxCell>
        <mxCell id="i9rH-VH7goMe6gmp9oEX-6" value="access &#39;all_words&#39; and&lt;br&gt;store in &lt;i&gt;all_words&lt;/i&gt; variable&lt;br&gt;also create a blank list called&lt;br&gt;&lt;i&gt;options&lt;/i&gt;" style="rounded=1;whiteSpace=wrap;html=1;absoluteArcSize=1;arcSize=14;strokeWidth=2;" vertex="1" parent="1">
          <mxGeometry x="4187.89" y="183.3900000000001" width="160" height="79.11" as="geometry" />
        </mxCell>
        <mxCell id="i9rH-VH7goMe6gmp9oEX-12" style="edgeStyle=orthogonalEdgeStyle;rounded=0;orthogonalLoop=1;jettySize=auto;html=1;entryX=0;entryY=0.5;entryDx=0;entryDy=0;" edge="1" parent="1" source="i9rH-VH7goMe6gmp9oEX-9" target="i9rH-VH7goMe6gmp9oEX-13">
          <mxGeometry relative="1" as="geometry">
            <mxPoint x="4400.89" y="263.8900000000001" as="targetPoint" />
          </mxGeometry>
        </mxCell>
        <mxCell id="i9rH-VH7goMe6gmp9oEX-9" value="from the &#39;difficulty_info&#39; section, store this information in&amp;nbsp;&lt;i&gt;difficulty_info&amp;nbsp;&lt;/i&gt;" style="rounded=1;whiteSpace=wrap;html=1;absoluteArcSize=1;arcSize=14;strokeWidth=2;" vertex="1" parent="1">
          <mxGeometry x="4180.39" y="281.3900000000001" width="175" height="60" as="geometry" />
        </mxCell>
        <mxCell id="i9rH-VH7goMe6gmp9oEX-15" value="" style="edgeStyle=orthogonalEdgeStyle;rounded=0;orthogonalLoop=1;jettySize=auto;html=1;" edge="1" parent="1" source="i9rH-VH7goMe6gmp9oEX-13" target="16hW8aWgDfImmh0Cn97X-51">
          <mxGeometry relative="1" as="geometry" />
        </mxCell>
        <mxCell id="i9rH-VH7goMe6gmp9oEX-16" value="yes" style="edgeLabel;html=1;align=center;verticalAlign=middle;resizable=0;points=[];" vertex="1" connectable="0" parent="i9rH-VH7goMe6gmp9oEX-15">
          <mxGeometry x="0.2118" y="-2" relative="1" as="geometry">
            <mxPoint as="offset" />
          </mxGeometry>
        </mxCell>
        <mxCell id="i9rH-VH7goMe6gmp9oEX-13" value="&lt;font style=&quot;font-size: 11px;&quot;&gt;does&amp;nbsp;&lt;i&gt;options&lt;/i&gt;&amp;nbsp;contain&amp;nbsp;&lt;/font&gt;&lt;div&gt;&lt;font style=&quot;font-size: 11px;&quot;&gt;all of the sortcuts in&amp;nbsp;&lt;/font&gt;&lt;div&gt;&lt;i&gt;&lt;font style=&quot;font-size: 11px;&quot;&gt;&lt;b&gt;difficulty_info&lt;/b&gt;&lt;/font&gt;&lt;/i&gt;&lt;/div&gt;&lt;div&gt;&lt;i&gt;&lt;font style=&quot;font-size: 11px;&quot;&gt;&lt;b&gt;[&#39;&#39;shortcuts&quot;]&lt;/b&gt;&lt;/font&gt;&lt;/i&gt;&lt;/div&gt;&lt;/div&gt;" style="rhombus;whiteSpace=wrap;html=1;" vertex="1" parent="1">
          <mxGeometry x="4404.89" y="211.8900000000001" width="183" height="104.5" as="geometry" />
        </mxCell>
        <mxCell id="i9rH-VH7goMe6gmp9oEX-19" style="edgeStyle=orthogonalEdgeStyle;rounded=0;orthogonalLoop=1;jettySize=auto;html=1;entryX=0.5;entryY=0;entryDx=0;entryDy=0;" edge="1" parent="1" source="i9rH-VH7goMe6gmp9oEX-17" target="i9rH-VH7goMe6gmp9oEX-13">
          <mxGeometry relative="1" as="geometry">
            <Array as="points">
              <mxPoint x="4707.89" y="191.3900000000001" />
              <mxPoint x="4496.89" y="191.3900000000001" />
            </Array>
          </mxGeometry>
        </mxCell>
        <mxCell id="i9rH-VH7goMe6gmp9oEX-17" value="add item from&amp;nbsp;&lt;i&gt;difficulty_info[&#39;&#39;shortcuts&quot;]&lt;/i&gt;&lt;div&gt;into&lt;i&gt; options&lt;/i&gt;&lt;/div&gt;" style="rounded=1;whiteSpace=wrap;html=1;absoluteArcSize=1;arcSize=14;strokeWidth=2;" vertex="1" parent="1">
          <mxGeometry x="4618.89" y="224.3900000000001" width="175" height="49" as="geometry" />
        </mxCell>
        <mxCell id="i9rH-VH7goMe6gmp9oEX-18" value="No" style="edgeStyle=orthogonalEdgeStyle;rounded=0;orthogonalLoop=1;jettySize=auto;html=1;entryX=-0.002;entryY=0.616;entryDx=0;entryDy=0;entryPerimeter=0;" edge="1" parent="1" source="i9rH-VH7goMe6gmp9oEX-13" target="i9rH-VH7goMe6gmp9oEX-17">
          <mxGeometry relative="1" as="geometry" />
        </mxCell>
        <mxCell id="i9rH-VH7goMe6gmp9oEX-21" value="" style="edgeStyle=orthogonalEdgeStyle;rounded=0;orthogonalLoop=1;jettySize=auto;html=1;" edge="1" parent="1" source="i9rH-VH7goMe6gmp9oEX-22" target="i9rH-VH7goMe6gmp9oEX-24">
          <mxGeometry relative="1" as="geometry" />
        </mxCell>
        <mxCell id="i9rH-VH7goMe6gmp9oEX-22" value="renderWord" style="strokeWidth=2;html=1;shape=mxgraph.flowchart.start_2;whiteSpace=wrap;" vertex="1" parent="1">
          <mxGeometry x="1767.9099999999999" y="522.5" width="100" height="60" as="geometry" />
        </mxCell>
        <mxCell id="i9rH-VH7goMe6gmp9oEX-23" value="" style="edgeStyle=orthogonalEdgeStyle;rounded=0;orthogonalLoop=1;jettySize=auto;html=1;" edge="1" parent="1" source="i9rH-VH7goMe6gmp9oEX-24" target="i9rH-VH7goMe6gmp9oEX-26">
          <mxGeometry relative="1" as="geometry" />
        </mxCell>
        <mxCell id="i9rH-VH7goMe6gmp9oEX-24" value="Create empty string called &lt;i&gt;display&lt;/i&gt;" style="rounded=1;whiteSpace=wrap;html=1;absoluteArcSize=1;arcSize=14;strokeWidth=2;" vertex="1" parent="1">
          <mxGeometry x="1717.9099999999999" y="610.25" width="200" height="42.25" as="geometry" />
        </mxCell>
        <mxCell id="i9rH-VH7goMe6gmp9oEX-25" value="" style="edgeStyle=orthogonalEdgeStyle;rounded=0;orthogonalLoop=1;jettySize=auto;html=1;" edge="1" parent="1" source="i9rH-VH7goMe6gmp9oEX-26" target="i9rH-VH7goMe6gmp9oEX-31">
          <mxGeometry relative="1" as="geometry" />
        </mxCell>
        <mxCell id="i9rH-VH7goMe6gmp9oEX-26" value="check i&lt;font style=&quot;font-size: 8px;&quot;&gt;th &lt;/font&gt;&lt;font style=&quot;font-size: 12px;&quot;&gt;character in &lt;i&gt;targetWord&lt;/i&gt;&lt;/font&gt;" style="whiteSpace=wrap;html=1;rounded=1;arcSize=14;strokeWidth=2;" vertex="1" parent="1">
          <mxGeometry x="1708.6599999999999" y="682.5" width="217.5" height="41.13" as="geometry" />
        </mxCell>
        <mxCell id="i9rH-VH7goMe6gmp9oEX-27" value="" style="edgeStyle=orthogonalEdgeStyle;rounded=0;orthogonalLoop=1;jettySize=auto;html=1;" edge="1" parent="1" source="i9rH-VH7goMe6gmp9oEX-31" target="i9rH-VH7goMe6gmp9oEX-38">
          <mxGeometry relative="1" as="geometry" />
        </mxCell>
        <mxCell id="i9rH-VH7goMe6gmp9oEX-28" value="Yes" style="edgeLabel;html=1;align=center;verticalAlign=middle;resizable=0;points=[];" vertex="1" connectable="0" parent="i9rH-VH7goMe6gmp9oEX-27">
          <mxGeometry x="-0.6552" y="1" relative="1" as="geometry">
            <mxPoint y="1" as="offset" />
          </mxGeometry>
        </mxCell>
        <mxCell id="i9rH-VH7goMe6gmp9oEX-29" style="edgeStyle=orthogonalEdgeStyle;rounded=0;orthogonalLoop=1;jettySize=auto;html=1;entryX=1;entryY=0.5;entryDx=0;entryDy=0;" edge="1" parent="1" source="i9rH-VH7goMe6gmp9oEX-31" target="i9rH-VH7goMe6gmp9oEX-40">
          <mxGeometry relative="1" as="geometry">
            <mxPoint x="2104.91" y="982.4999999999999" as="targetPoint" />
            <Array as="points">
              <mxPoint x="2137.91" y="703.5" />
              <mxPoint x="2137.91" y="802.5" />
              <mxPoint x="2131.91" y="802.5" />
              <mxPoint x="2131.91" y="910.5" />
            </Array>
          </mxGeometry>
        </mxCell>
        <mxCell id="i9rH-VH7goMe6gmp9oEX-30" value="No" style="edgeLabel;html=1;align=center;verticalAlign=middle;resizable=0;points=[];" vertex="1" connectable="0" parent="i9rH-VH7goMe6gmp9oEX-29">
          <mxGeometry x="-0.0815" y="2" relative="1" as="geometry">
            <mxPoint as="offset" />
          </mxGeometry>
        </mxCell>
        <mxCell id="i9rH-VH7goMe6gmp9oEX-31" value="Is charactar in the guessed charactars" style="rhombus;whiteSpace=wrap;html=1;rounded=1;arcSize=14;strokeWidth=2;" vertex="1" parent="1">
          <mxGeometry x="1960.9099999999999" y="663.0699999999999" width="145" height="80" as="geometry" />
        </mxCell>
        <mxCell id="i9rH-VH7goMe6gmp9oEX-32" style="edgeStyle=orthogonalEdgeStyle;rounded=0;orthogonalLoop=1;jettySize=auto;html=1;entryX=0;entryY=0.5;entryDx=0;entryDy=0;" edge="1" parent="1" source="i9rH-VH7goMe6gmp9oEX-36" target="i9rH-VH7goMe6gmp9oEX-26">
          <mxGeometry relative="1" as="geometry">
            <Array as="points">
              <mxPoint x="1688.9099999999999" y="802.5" />
              <mxPoint x="1688.9099999999999" y="703.5" />
            </Array>
          </mxGeometry>
        </mxCell>
        <mxCell id="i9rH-VH7goMe6gmp9oEX-33" value="No" style="edgeLabel;html=1;align=center;verticalAlign=middle;resizable=0;points=[];" vertex="1" connectable="0" parent="i9rH-VH7goMe6gmp9oEX-32">
          <mxGeometry x="0.031" y="2" relative="1" as="geometry">
            <mxPoint as="offset" />
          </mxGeometry>
        </mxCell>
        <mxCell id="i9rH-VH7goMe6gmp9oEX-34" value="" style="edgeStyle=orthogonalEdgeStyle;rounded=0;orthogonalLoop=1;jettySize=auto;html=1;entryX=0.5;entryY=0;entryDx=0;entryDy=0;" edge="1" parent="1" source="i9rH-VH7goMe6gmp9oEX-36" target="i9rH-VH7goMe6gmp9oEX-69">
          <mxGeometry relative="1" as="geometry">
            <mxPoint x="1814.9688235294116" y="879.9999999999998" as="targetPoint" />
          </mxGeometry>
        </mxCell>
        <mxCell id="i9rH-VH7goMe6gmp9oEX-35" value="Yes" style="edgeLabel;html=1;align=center;verticalAlign=middle;resizable=0;points=[];" vertex="1" connectable="0" parent="i9rH-VH7goMe6gmp9oEX-34">
          <mxGeometry x="-0.2711" relative="1" as="geometry">
            <mxPoint as="offset" />
          </mxGeometry>
        </mxCell>
        <mxCell id="i9rH-VH7goMe6gmp9oEX-36" value="have we checked all letters in &lt;i&gt;targetword?&lt;/i&gt;" style="rhombus;whiteSpace=wrap;html=1;rounded=1;arcSize=14;strokeWidth=2;" vertex="1" parent="1">
          <mxGeometry x="1721.6599999999999" y="753.5" width="146.25" height="100" as="geometry" />
        </mxCell>
        <mxCell id="i9rH-VH7goMe6gmp9oEX-37" style="edgeStyle=orthogonalEdgeStyle;rounded=0;orthogonalLoop=1;jettySize=auto;html=1;entryX=1;entryY=0.5;entryDx=0;entryDy=0;" edge="1" parent="1" source="i9rH-VH7goMe6gmp9oEX-38" target="i9rH-VH7goMe6gmp9oEX-36">
          <mxGeometry relative="1" as="geometry" />
        </mxCell>
        <mxCell id="i9rH-VH7goMe6gmp9oEX-38" value="add f&quot; {charactar} &quot; to the &lt;i&gt;display&lt;/i&gt; string" style="whiteSpace=wrap;html=1;rounded=1;arcSize=14;strokeWidth=2;" vertex="1" parent="1">
          <mxGeometry x="1944.6599999999999" y="786.5" width="120" height="60" as="geometry" />
        </mxCell>
        <mxCell id="i9rH-VH7goMe6gmp9oEX-39" style="edgeStyle=orthogonalEdgeStyle;rounded=0;orthogonalLoop=1;jettySize=auto;html=1;entryX=1;entryY=0.5;entryDx=0;entryDy=0;" edge="1" parent="1" source="i9rH-VH7goMe6gmp9oEX-40" target="i9rH-VH7goMe6gmp9oEX-36">
          <mxGeometry relative="1" as="geometry" />
        </mxCell>
        <mxCell id="i9rH-VH7goMe6gmp9oEX-40" value="add &quot; _ &quot; to the &lt;i&gt;display&lt;/i&gt; string" style="rounded=1;whiteSpace=wrap;html=1;absoluteArcSize=1;arcSize=14;strokeWidth=2;" vertex="1" parent="1">
          <mxGeometry x="1944.6599999999999" y="875.5" width="118" height="70" as="geometry" />
        </mxCell>
        <mxCell id="i9rH-VH7goMe6gmp9oEX-45" value="Is the &lt;i&gt;user_end&lt;/i&gt;&amp;nbsp;&lt;div&gt;variable true?&lt;/div&gt;" style="strokeWidth=2;html=1;shape=mxgraph.flowchart.decision;whiteSpace=wrap;" vertex="1" parent="1">
          <mxGeometry x="898.5" y="97.5" width="123" height="87" as="geometry" />
        </mxCell>
        <mxCell id="i9rH-VH7goMe6gmp9oEX-46" value="Return (True, &quot;Q&quot;" style="strokeWidth=2;html=1;shape=mxgraph.flowchart.start_2;whiteSpace=wrap;" vertex="1" parent="1">
          <mxGeometry x="1232.5" y="102.50000000000004" width="100" height="60" as="geometry" />
        </mxCell>
        <mxCell id="i9rH-VH7goMe6gmp9oEX-47" style="edgeStyle=orthogonalEdgeStyle;rounded=0;orthogonalLoop=1;jettySize=auto;html=1;entryX=0.5;entryY=0;entryDx=0;entryDy=0;entryPerimeter=0;" edge="1" parent="1" source="i9rH-VH7goMe6gmp9oEX-45" target="i9rH-VH7goMe6gmp9oEX-46">
          <mxGeometry relative="1" as="geometry" />
        </mxCell>
        <mxCell id="i9rH-VH7goMe6gmp9oEX-48" value="Yes" style="edgeLabel;html=1;align=center;verticalAlign=middle;resizable=0;points=[];" vertex="1" connectable="0" parent="i9rH-VH7goMe6gmp9oEX-47">
          <mxGeometry x="-0.4718" y="5" relative="1" as="geometry">
            <mxPoint as="offset" />
          </mxGeometry>
        </mxCell>
        <mxCell id="i9rH-VH7goMe6gmp9oEX-49" style="edgeStyle=orthogonalEdgeStyle;rounded=0;orthogonalLoop=1;jettySize=auto;html=1;entryX=0.5;entryY=0;entryDx=0;entryDy=0;entryPerimeter=0;" edge="1" parent="1" source="i9rH-VH7goMe6gmp9oEX-45" target="MnmEK7-N3imYMPAZ-l2H-77">
          <mxGeometry relative="1" as="geometry" />
        </mxCell>
        <mxCell id="i9rH-VH7goMe6gmp9oEX-50" value="No" style="edgeLabel;html=1;align=center;verticalAlign=middle;resizable=0;points=[];" vertex="1" connectable="0" parent="i9rH-VH7goMe6gmp9oEX-49">
          <mxGeometry x="-0.1393" y="1" relative="1" as="geometry">
            <mxPoint as="offset" />
          </mxGeometry>
        </mxCell>
        <mxCell id="i9rH-VH7goMe6gmp9oEX-54" value="" style="edgeStyle=orthogonalEdgeStyle;rounded=0;orthogonalLoop=1;jettySize=auto;html=1;" edge="1" parent="1" source="i9rH-VH7goMe6gmp9oEX-51" target="i9rH-VH7goMe6gmp9oEX-53">
          <mxGeometry relative="1" as="geometry" />
        </mxCell>
        <mxCell id="i9rH-VH7goMe6gmp9oEX-51" value="&lt;font style=&quot;font-size: 15px;&quot;&gt;Deduct&lt;/font&gt;&lt;div&gt;&lt;font style=&quot;font-size: 15px;&quot;&gt;&amp;nbsp;10 points&lt;/font&gt;&lt;/div&gt;" style="rounded=1;whiteSpace=wrap;html=1;absoluteArcSize=1;arcSize=14;strokeWidth=2;" vertex="1" parent="1">
          <mxGeometry x="1853" y="209.86" width="127.5" height="50.5" as="geometry" />
        </mxCell>
        <mxCell id="i9rH-VH7goMe6gmp9oEX-53" value="&lt;div&gt;return&lt;/div&gt;Already used letter, loose 10 points" style="ellipse;whiteSpace=wrap;html=1;strokeWidth=2;rounded=1;arcSize=12;" vertex="1" parent="1">
          <mxGeometry x="1996" y="206.36" width="90" height="57.5" as="geometry" />
        </mxCell>
        <mxCell id="i9rH-VH7goMe6gmp9oEX-58" value="return&lt;div&gt;Wrong choice, loose 10 points&lt;/div&gt;" style="ellipse;whiteSpace=wrap;html=1;strokeWidth=2;rounded=1;arcSize=12;" vertex="1" parent="1">
          <mxGeometry x="2078.5" y="431.5" width="101" height="57.5" as="geometry" />
        </mxCell>
        <mxCell id="i9rH-VH7goMe6gmp9oEX-62" value="return&lt;div&gt;Correct choice,&lt;/div&gt;&lt;div&gt;gain 10 points&lt;/div&gt;" style="ellipse;whiteSpace=wrap;html=1;strokeWidth=2;rounded=1;arcSize=12;" vertex="1" parent="1">
          <mxGeometry x="1895" y="434.18" width="101" height="57.5" as="geometry" />
        </mxCell>
        <mxCell id="i9rH-VH7goMe6gmp9oEX-63" value="&lt;font style=&quot;font-size: 15px;&quot;&gt;Deduct&lt;/font&gt;&lt;div&gt;&lt;font style=&quot;font-size: 15px;&quot;&gt;&amp;nbsp;10 points&lt;/font&gt;&lt;/div&gt;" style="rounded=1;whiteSpace=wrap;html=1;absoluteArcSize=1;arcSize=14;strokeWidth=2;" vertex="1" parent="1">
          <mxGeometry x="2077.25" y="155.86" width="103.5" height="50.5" as="geometry" />
        </mxCell>
        <mxCell id="i9rH-VH7goMe6gmp9oEX-68" value="" style="edgeStyle=orthogonalEdgeStyle;rounded=0;orthogonalLoop=1;jettySize=auto;html=1;" edge="1" parent="1" source="i9rH-VH7goMe6gmp9oEX-65" target="i9rH-VH7goMe6gmp9oEX-62">
          <mxGeometry relative="1" as="geometry" />
        </mxCell>
        <mxCell id="i9rH-VH7goMe6gmp9oEX-65" value="&lt;font style=&quot;font-size: 15px;&quot;&gt;Add&lt;/font&gt;&lt;div&gt;&lt;font style=&quot;font-size: 15px;&quot;&gt;&amp;nbsp;10 points&lt;/font&gt;&lt;/div&gt;" style="rounded=1;whiteSpace=wrap;html=1;absoluteArcSize=1;arcSize=14;strokeWidth=2;" vertex="1" parent="1">
          <mxGeometry x="1727" y="435" width="103.5" height="50.5" as="geometry" />
        </mxCell>
        <mxCell id="i9rH-VH7goMe6gmp9oEX-71" value="" style="edgeStyle=orthogonalEdgeStyle;rounded=0;orthogonalLoop=1;jettySize=auto;html=1;" edge="1" parent="1" source="i9rH-VH7goMe6gmp9oEX-69" target="i9rH-VH7goMe6gmp9oEX-70">
          <mxGeometry relative="1" as="geometry" />
        </mxCell>
        <mxCell id="i9rH-VH7goMe6gmp9oEX-69" value="change the color of&lt;div&gt;&amp;nbsp;display to green&lt;/div&gt;" style="rounded=1;whiteSpace=wrap;html=1;absoluteArcSize=1;arcSize=14;strokeWidth=2;" vertex="1" parent="1">
          <mxGeometry x="1687" y="894.5" width="200" height="51" as="geometry" />
        </mxCell>
        <mxCell id="i9rH-VH7goMe6gmp9oEX-73" style="edgeStyle=orthogonalEdgeStyle;rounded=0;orthogonalLoop=1;jettySize=auto;html=1;entryX=0;entryY=0.5;entryDx=0;entryDy=0;" edge="1" parent="1" source="i9rH-VH7goMe6gmp9oEX-70" target="i9rH-VH7goMe6gmp9oEX-72">
          <mxGeometry relative="1" as="geometry" />
        </mxCell>
        <mxCell id="i9rH-VH7goMe6gmp9oEX-70" value="add the following text in cyan:&lt;br&gt;&quot;letters guessed: &quot;" style="rounded=1;whiteSpace=wrap;html=1;" vertex="1" parent="1">
          <mxGeometry x="1727" y="971.39" width="120" height="60" as="geometry" />
        </mxCell>
        <mxCell id="i9rH-VH7goMe6gmp9oEX-76" value="" style="edgeStyle=orthogonalEdgeStyle;rounded=0;orthogonalLoop=1;jettySize=auto;html=1;" edge="1" parent="1" source="i9rH-VH7goMe6gmp9oEX-72" target="i9rH-VH7goMe6gmp9oEX-75">
          <mxGeometry relative="1" as="geometry" />
        </mxCell>
        <mxCell id="i9rH-VH7goMe6gmp9oEX-79" value="No" style="edgeLabel;html=1;align=center;verticalAlign=middle;resizable=0;points=[];" vertex="1" connectable="0" parent="i9rH-VH7goMe6gmp9oEX-76">
          <mxGeometry x="0.1321" relative="1" as="geometry">
            <mxPoint as="offset" />
          </mxGeometry>
        </mxCell>
        <mxCell id="i9rH-VH7goMe6gmp9oEX-72" value="has every letter in&amp;nbsp;&lt;div&gt;&lt;i&gt;used_guesses&lt;/i&gt;&lt;/div&gt;&lt;div&gt;&lt;i&gt;&lt;/i&gt;been checked?&lt;/div&gt;" style="rhombus;whiteSpace=wrap;html=1;" vertex="1" parent="1">
          <mxGeometry x="1944.6599999999999" y="955.89" width="172" height="91" as="geometry" />
        </mxCell>
        <mxCell id="i9rH-VH7goMe6gmp9oEX-78" value="" style="edgeStyle=orthogonalEdgeStyle;rounded=0;orthogonalLoop=1;jettySize=auto;html=1;exitX=1;exitY=1;exitDx=0;exitDy=0;" edge="1" parent="1" source="i9rH-VH7goMe6gmp9oEX-75" target="i9rH-VH7goMe6gmp9oEX-77">
          <mxGeometry relative="1" as="geometry">
            <Array as="points">
              <mxPoint x="2378" y="1021.39" />
            </Array>
          </mxGeometry>
        </mxCell>
        <mxCell id="i9rH-VH7goMe6gmp9oEX-85" value="Yes" style="edgeLabel;html=1;align=center;verticalAlign=middle;resizable=0;points=[];" vertex="1" connectable="0" parent="i9rH-VH7goMe6gmp9oEX-78">
          <mxGeometry x="-0.1977" y="-1" relative="1" as="geometry">
            <mxPoint as="offset" />
          </mxGeometry>
        </mxCell>
        <mxCell id="i9rH-VH7goMe6gmp9oEX-82" style="edgeStyle=orthogonalEdgeStyle;rounded=0;orthogonalLoop=1;jettySize=auto;html=1;entryX=0.5;entryY=0;entryDx=0;entryDy=0;exitX=0;exitY=1;exitDx=0;exitDy=0;" edge="1" parent="1" source="i9rH-VH7goMe6gmp9oEX-75" target="i9rH-VH7goMe6gmp9oEX-81">
          <mxGeometry relative="1" as="geometry">
            <Array as="points">
              <mxPoint x="2217" y="1027.39" />
              <mxPoint x="2147" y="1027.39" />
            </Array>
          </mxGeometry>
        </mxCell>
        <mxCell id="i9rH-VH7goMe6gmp9oEX-84" value="No" style="edgeLabel;html=1;align=center;verticalAlign=middle;resizable=0;points=[];" vertex="1" connectable="0" parent="i9rH-VH7goMe6gmp9oEX-82">
          <mxGeometry x="-0.0128" relative="1" as="geometry">
            <mxPoint as="offset" />
          </mxGeometry>
        </mxCell>
        <mxCell id="i9rH-VH7goMe6gmp9oEX-75" value="is the current&lt;div&gt;guessed letter in &lt;i&gt;target_word&lt;/i&gt;&lt;/div&gt;" style="rhombus;whiteSpace=wrap;html=1;" vertex="1" parent="1">
          <mxGeometry x="2180.5" y="961.39" width="146.34" height="80" as="geometry" />
        </mxCell>
        <mxCell id="i9rH-VH7goMe6gmp9oEX-87" style="edgeStyle=orthogonalEdgeStyle;rounded=0;orthogonalLoop=1;jettySize=auto;html=1;entryX=0.5;entryY=1;entryDx=0;entryDy=0;" edge="1" parent="1" source="i9rH-VH7goMe6gmp9oEX-77" target="i9rH-VH7goMe6gmp9oEX-72">
          <mxGeometry relative="1" as="geometry">
            <Array as="points">
              <mxPoint x="2395" y="1130.39" />
              <mxPoint x="2031" y="1130.39" />
            </Array>
          </mxGeometry>
        </mxCell>
        <mxCell id="i9rH-VH7goMe6gmp9oEX-77" value="add the current guessed letter to the display in &lt;i&gt;cyan&lt;/i&gt;&lt;div&gt;followed by &quot; &quot;&lt;i&gt;&lt;/i&gt;&lt;/div&gt;" style="whiteSpace=wrap;html=1;" vertex="1" parent="1">
          <mxGeometry x="2335" y="1038.39" width="120" height="60" as="geometry" />
        </mxCell>
        <mxCell id="i9rH-VH7goMe6gmp9oEX-86" style="edgeStyle=orthogonalEdgeStyle;rounded=0;orthogonalLoop=1;jettySize=auto;html=1;entryX=0.5;entryY=1;entryDx=0;entryDy=0;" edge="1" parent="1" source="i9rH-VH7goMe6gmp9oEX-81" target="i9rH-VH7goMe6gmp9oEX-72">
          <mxGeometry relative="1" as="geometry">
            <Array as="points">
              <mxPoint x="2147" y="1130.39" />
              <mxPoint x="2031" y="1130.39" />
            </Array>
          </mxGeometry>
        </mxCell>
        <mxCell id="i9rH-VH7goMe6gmp9oEX-81" value="add the current guessed letter to the display in &lt;i&gt;red,&amp;nbsp;&lt;/i&gt;&lt;br&gt;followed by &quot; &quot;" style="whiteSpace=wrap;html=1;" vertex="1" parent="1">
          <mxGeometry x="2087" y="1046.89" width="120" height="60" as="geometry" />
        </mxCell>
        <mxCell id="i9rH-VH7goMe6gmp9oEX-88" value="return&lt;br&gt;&lt;i&gt;display&lt;/i&gt;" style="strokeWidth=2;html=1;shape=mxgraph.flowchart.start_2;whiteSpace=wrap;" vertex="1" parent="1">
          <mxGeometry x="1744.7800000000002" y="1086.39" width="100" height="60" as="geometry" />
        </mxCell>
        <mxCell id="i9rH-VH7goMe6gmp9oEX-89" style="edgeStyle=orthogonalEdgeStyle;rounded=0;orthogonalLoop=1;jettySize=auto;html=1;exitX=0;exitY=1;exitDx=0;exitDy=0;entryX=1;entryY=0.5;entryDx=0;entryDy=0;entryPerimeter=0;" edge="1" parent="1" source="i9rH-VH7goMe6gmp9oEX-72" target="i9rH-VH7goMe6gmp9oEX-88">
          <mxGeometry relative="1" as="geometry" />
        </mxCell>
        <mxCell id="i9rH-VH7goMe6gmp9oEX-90" value="Yes" style="edgeLabel;html=1;align=center;verticalAlign=middle;resizable=0;points=[];" vertex="1" connectable="0" parent="i9rH-VH7goMe6gmp9oEX-89">
          <mxGeometry x="0.1295" y="5" relative="1" as="geometry">
            <mxPoint y="-1" as="offset" />
          </mxGeometry>
        </mxCell>
        <mxCell id="i9rH-VH7goMe6gmp9oEX-92" style="edgeStyle=orthogonalEdgeStyle;rounded=0;orthogonalLoop=1;jettySize=auto;html=1;entryX=0.5;entryY=0;entryDx=0;entryDy=0;" edge="1" parent="1" source="i9rH-VH7goMe6gmp9oEX-91" target="i9rH-VH7goMe6gmp9oEX-93">
          <mxGeometry relative="1" as="geometry">
            <mxPoint x="2626" y="128.66666666666663" as="targetPoint" />
          </mxGeometry>
        </mxCell>
        <mxCell id="i9rH-VH7goMe6gmp9oEX-91" value="use_data(...)" style="strokeWidth=2;html=1;shape=mxgraph.flowchart.start_2;whiteSpace=wrap;" vertex="1" parent="1">
          <mxGeometry x="2576" y="33" width="100" height="60" as="geometry" />
        </mxCell>
        <mxCell id="i9rH-VH7goMe6gmp9oEX-96" value="" style="edgeStyle=orthogonalEdgeStyle;rounded=0;orthogonalLoop=1;jettySize=auto;html=1;" edge="1" parent="1" source="i9rH-VH7goMe6gmp9oEX-93" target="i9rH-VH7goMe6gmp9oEX-95">
          <mxGeometry relative="1" as="geometry" />
        </mxCell>
        <mxCell id="i9rH-VH7goMe6gmp9oEX-93" value="takes arguments as shown:&lt;br&gt;filename (string)&lt;div&gt;relative_path (string) | optional&lt;/div&gt;&lt;div&gt;state (string) | optional&lt;/div&gt;&lt;div&gt;data | optional&lt;/div&gt;" style="rounded=1;whiteSpace=wrap;html=1;absoluteArcSize=1;arcSize=14;strokeWidth=2;" vertex="1" parent="1">
          <mxGeometry x="2526" y="119.36000000000003" width="200" height="87" as="geometry" />
        </mxCell>
        <mxCell id="i9rH-VH7goMe6gmp9oEX-98" value="" style="edgeStyle=orthogonalEdgeStyle;rounded=0;orthogonalLoop=1;jettySize=auto;html=1;" edge="1" parent="1" source="i9rH-VH7goMe6gmp9oEX-95" target="i9rH-VH7goMe6gmp9oEX-97">
          <mxGeometry relative="1" as="geometry" />
        </mxCell>
        <mxCell id="i9rH-VH7goMe6gmp9oEX-100" value="No" style="edgeLabel;html=1;align=center;verticalAlign=middle;resizable=0;points=[];" vertex="1" connectable="0" parent="i9rH-VH7goMe6gmp9oEX-98">
          <mxGeometry x="-0.2099" y="3" relative="1" as="geometry">
            <mxPoint as="offset" />
          </mxGeometry>
        </mxCell>
        <mxCell id="i9rH-VH7goMe6gmp9oEX-102" value="" style="edgeStyle=orthogonalEdgeStyle;rounded=0;orthogonalLoop=1;jettySize=auto;html=1;" edge="1" parent="1" source="i9rH-VH7goMe6gmp9oEX-95" target="i9rH-VH7goMe6gmp9oEX-101">
          <mxGeometry relative="1" as="geometry" />
        </mxCell>
        <mxCell id="i9rH-VH7goMe6gmp9oEX-105" value="Yes" style="edgeLabel;html=1;align=center;verticalAlign=middle;resizable=0;points=[];" vertex="1" connectable="0" parent="i9rH-VH7goMe6gmp9oEX-102">
          <mxGeometry x="-0.2416" y="-1" relative="1" as="geometry">
            <mxPoint y="4" as="offset" />
          </mxGeometry>
        </mxCell>
        <mxCell id="i9rH-VH7goMe6gmp9oEX-95" value="has a value&amp;nbsp;&lt;div&gt;been provided for&amp;nbsp;&lt;div&gt;&lt;i&gt;relative_path?&lt;/i&gt;&lt;/div&gt;&lt;/div&gt;" style="strokeWidth=2;html=1;shape=mxgraph.flowchart.decision;whiteSpace=wrap;" vertex="1" parent="1">
          <mxGeometry x="2767" y="111.56000000000002" width="156" height="100" as="geometry" />
        </mxCell>
        <mxCell id="i9rH-VH7goMe6gmp9oEX-106" style="edgeStyle=orthogonalEdgeStyle;rounded=0;orthogonalLoop=1;jettySize=auto;html=1;entryX=1;entryY=0;entryDx=0;entryDy=0;" edge="1" parent="1" source="i9rH-VH7goMe6gmp9oEX-97" target="i9rH-VH7goMe6gmp9oEX-101">
          <mxGeometry relative="1" as="geometry">
            <Array as="points">
              <mxPoint x="3002" y="226" />
              <mxPoint x="2932" y="226" />
              <mxPoint x="2932" y="258" />
            </Array>
          </mxGeometry>
        </mxCell>
        <mxCell id="i9rH-VH7goMe6gmp9oEX-97" value="&lt;i&gt;relative path = &quot;&quot;&lt;/i&gt;" style="whiteSpace=wrap;html=1;strokeWidth=2;" vertex="1" parent="1">
          <mxGeometry x="2969" y="131.56" width="120" height="60" as="geometry" />
        </mxCell>
        <mxCell id="i9rH-VH7goMe6gmp9oEX-104" value="" style="edgeStyle=orthogonalEdgeStyle;rounded=0;orthogonalLoop=1;jettySize=auto;html=1;" edge="1" parent="1" source="i9rH-VH7goMe6gmp9oEX-101" target="i9rH-VH7goMe6gmp9oEX-103">
          <mxGeometry relative="1" as="geometry" />
        </mxCell>
        <mxCell id="i9rH-VH7goMe6gmp9oEX-108" style="edgeStyle=orthogonalEdgeStyle;rounded=0;orthogonalLoop=1;jettySize=auto;html=1;entryX=1;entryY=0.5;entryDx=0;entryDy=0;" edge="1" parent="1" source="i9rH-VH7goMe6gmp9oEX-101" target="i9rH-VH7goMe6gmp9oEX-107">
          <mxGeometry relative="1" as="geometry" />
        </mxCell>
        <mxCell id="i9rH-VH7goMe6gmp9oEX-101" value="has a value&lt;div&gt;&amp;nbsp;been provided for state?&lt;/div&gt;" style="rhombus;whiteSpace=wrap;html=1;strokeWidth=2;" vertex="1" parent="1">
          <mxGeometry x="2788" y="232" width="115" height="103.87" as="geometry" />
        </mxCell>
        <mxCell id="i9rH-VH7goMe6gmp9oEX-103" value="&lt;i&gt;state = &lt;/i&gt;&quot;r&quot;" style="whiteSpace=wrap;html=1;strokeWidth=2;" vertex="1" parent="1">
          <mxGeometry x="2975.5" y="253.93" width="120" height="60" as="geometry" />
        </mxCell>
        <mxCell id="i9rH-VH7goMe6gmp9oEX-137" value="" style="edgeStyle=orthogonalEdgeStyle;rounded=0;orthogonalLoop=1;jettySize=auto;html=1;" edge="1" parent="1" source="i9rH-VH7goMe6gmp9oEX-107" target="i9rH-VH7goMe6gmp9oEX-136">
          <mxGeometry relative="1" as="geometry" />
        </mxCell>
        <mxCell id="i9rH-VH7goMe6gmp9oEX-107" value="&lt;i&gt;target_path_file &lt;/i&gt;= location of current script, joined with relative path, joined with the filename" style="rounded=1;whiteSpace=wrap;html=1;absoluteArcSize=1;arcSize=14;strokeWidth=2;" vertex="1" parent="1">
          <mxGeometry x="2534" y="255" width="200" height="70" as="geometry" />
        </mxCell>
        <mxCell id="i9rH-VH7goMe6gmp9oEX-123" value="" style="edgeStyle=orthogonalEdgeStyle;rounded=0;orthogonalLoop=1;jettySize=auto;html=1;" edge="1" parent="1" source="i9rH-VH7goMe6gmp9oEX-126" target="i9rH-VH7goMe6gmp9oEX-128">
          <mxGeometry relative="1" as="geometry" />
        </mxCell>
        <mxCell id="i9rH-VH7goMe6gmp9oEX-124" value="" style="edgeStyle=orthogonalEdgeStyle;rounded=0;orthogonalLoop=1;jettySize=auto;html=1;entryX=0;entryY=0.5;entryDx=0;entryDy=0;" edge="1" parent="1" source="i9rH-VH7goMe6gmp9oEX-126" target="i9rH-VH7goMe6gmp9oEX-131">
          <mxGeometry relative="1" as="geometry">
            <mxPoint x="2634" y="548.3799999999999" as="targetPoint" />
          </mxGeometry>
        </mxCell>
        <mxCell id="i9rH-VH7goMe6gmp9oEX-125" value="no" style="edgeLabel;html=1;align=center;verticalAlign=middle;resizable=0;points=[];" vertex="1" connectable="0" parent="i9rH-VH7goMe6gmp9oEX-124">
          <mxGeometry x="-0.1236" y="3" relative="1" as="geometry">
            <mxPoint as="offset" />
          </mxGeometry>
        </mxCell>
        <mxCell id="i9rH-VH7goMe6gmp9oEX-126" value="Is &lt;i&gt;state&lt;/i&gt;&amp;nbsp;a writing funciton?&lt;br&gt;(equal to &quot;w&quot;, &quot;a&quot; or &quot;x&quot;)" style="rhombus;whiteSpace=wrap;html=1;rounded=1;arcSize=14;strokeWidth=2;" vertex="1" parent="1">
          <mxGeometry x="2538" y="425" width="192" height="80" as="geometry" />
        </mxCell>
        <mxCell id="i9rH-VH7goMe6gmp9oEX-127" value="" style="edgeStyle=orthogonalEdgeStyle;rounded=0;orthogonalLoop=1;jettySize=auto;html=1;" edge="1" parent="1" source="i9rH-VH7goMe6gmp9oEX-128" target="i9rH-VH7goMe6gmp9oEX-129">
          <mxGeometry relative="1" as="geometry" />
        </mxCell>
        <mxCell id="i9rH-VH7goMe6gmp9oEX-128" value="Send the data to the &lt;i&gt;target_path_file &lt;/i&gt;based on the state" style="whiteSpace=wrap;html=1;rounded=1;arcSize=14;strokeWidth=2;" vertex="1" parent="1">
          <mxGeometry x="2803" y="435" width="120" height="60" as="geometry" />
        </mxCell>
        <mxCell id="i9rH-VH7goMe6gmp9oEX-129" value="return" style="ellipse;whiteSpace=wrap;html=1;rounded=1;arcSize=14;strokeWidth=2;" vertex="1" parent="1">
          <mxGeometry x="3009" y="434.57" width="80" height="57.11" as="geometry" />
        </mxCell>
        <mxCell id="i9rH-VH7goMe6gmp9oEX-130" style="edgeStyle=orthogonalEdgeStyle;rounded=0;orthogonalLoop=1;jettySize=auto;html=1;entryX=0;entryY=0.5;entryDx=0;entryDy=0;" edge="1" parent="1" source="i9rH-VH7goMe6gmp9oEX-131" target="i9rH-VH7goMe6gmp9oEX-132">
          <mxGeometry relative="1" as="geometry" />
        </mxCell>
        <mxCell id="i9rH-VH7goMe6gmp9oEX-131" value="Read the game data, and store it in &lt;i&gt;game_data&lt;/i&gt;" style="rounded=1;whiteSpace=wrap;html=1;absoluteArcSize=1;arcSize=14;strokeWidth=2;" vertex="1" parent="1">
          <mxGeometry x="2663" y="548.38" width="155" height="45" as="geometry" />
        </mxCell>
        <mxCell id="i9rH-VH7goMe6gmp9oEX-132" value="return&lt;br&gt;&lt;i&gt;game_data&lt;/i&gt;" style="ellipse;whiteSpace=wrap;html=1;rounded=1;arcSize=14;strokeWidth=2;" vertex="1" parent="1">
          <mxGeometry x="2909" y="542.32" width="80" height="57.11" as="geometry" />
        </mxCell>
        <mxCell id="i9rH-VH7goMe6gmp9oEX-139" value="No" style="edgeStyle=orthogonalEdgeStyle;rounded=0;orthogonalLoop=1;jettySize=auto;html=1;entryX=0;entryY=0.5;entryDx=0;entryDy=0;" edge="1" parent="1" source="i9rH-VH7goMe6gmp9oEX-136" target="i9rH-VH7goMe6gmp9oEX-141">
          <mxGeometry relative="1" as="geometry">
            <mxPoint x="2846" y="375.87" as="targetPoint" />
          </mxGeometry>
        </mxCell>
        <mxCell id="i9rH-VH7goMe6gmp9oEX-145" style="edgeStyle=orthogonalEdgeStyle;rounded=0;orthogonalLoop=1;jettySize=auto;html=1;entryX=0;entryY=0.5;entryDx=0;entryDy=0;" edge="1" parent="1" source="i9rH-VH7goMe6gmp9oEX-136" target="i9rH-VH7goMe6gmp9oEX-126">
          <mxGeometry relative="1" as="geometry">
            <Array as="points">
              <mxPoint x="2518" y="376" />
              <mxPoint x="2518" y="465" />
            </Array>
          </mxGeometry>
        </mxCell>
        <mxCell id="i9rH-VH7goMe6gmp9oEX-146" value="Yes" style="edgeLabel;html=1;align=center;verticalAlign=middle;resizable=0;points=[];" vertex="1" connectable="0" parent="i9rH-VH7goMe6gmp9oEX-145">
          <mxGeometry x="-0.2071" y="-1" relative="1" as="geometry">
            <mxPoint as="offset" />
          </mxGeometry>
        </mxCell>
        <mxCell id="i9rH-VH7goMe6gmp9oEX-136" value="does&lt;div&gt;&lt;i&gt;target_path_file&lt;/i&gt; exist&lt;/div&gt;" style="rhombus;whiteSpace=wrap;html=1;rounded=1;arcSize=14;strokeWidth=2;" vertex="1" parent="1">
          <mxGeometry x="2538" y="335.87" width="192" height="80" as="geometry" />
        </mxCell>
        <mxCell id="i9rH-VH7goMe6gmp9oEX-144" value="" style="edgeStyle=orthogonalEdgeStyle;rounded=0;orthogonalLoop=1;jettySize=auto;html=1;" edge="1" parent="1" source="i9rH-VH7goMe6gmp9oEX-141" target="i9rH-VH7goMe6gmp9oEX-143">
          <mxGeometry relative="1" as="geometry" />
        </mxCell>
        <mxCell id="i9rH-VH7goMe6gmp9oEX-141" value="Display,&amp;nbsp;&lt;br&gt;&lt;i&gt;filename not found&lt;/i&gt;" style="shape=parallelogram;html=1;strokeWidth=2;perimeter=parallelogramPerimeter;whiteSpace=wrap;rounded=1;arcSize=12;size=0.23;" vertex="1" parent="1">
          <mxGeometry x="2772" y="352.12" width="169" height="47.5" as="geometry" />
        </mxCell>
        <mxCell id="i9rH-VH7goMe6gmp9oEX-143" value="return&lt;br&gt;None" style="ellipse;whiteSpace=wrap;html=1;rounded=1;arcSize=14;strokeWidth=2;" vertex="1" parent="1">
          <mxGeometry x="2998" y="347.31" width="80" height="57.11" as="geometry" />
        </mxCell>
        <mxCell id="i9rH-VH7goMe6gmp9oEX-149" value="" style="edgeStyle=orthogonalEdgeStyle;rounded=0;orthogonalLoop=1;jettySize=auto;html=1;" edge="1" parent="1" source="i9rH-VH7goMe6gmp9oEX-147" target="i9rH-VH7goMe6gmp9oEX-148">
          <mxGeometry relative="1" as="geometry" />
        </mxCell>
        <mxCell id="i9rH-VH7goMe6gmp9oEX-147" value="load_game_state()" style="strokeWidth=2;html=1;shape=mxgraph.flowchart.start_2;whiteSpace=wrap;" vertex="1" parent="1">
          <mxGeometry x="3371.5" y="2" width="139" height="60" as="geometry" />
        </mxCell>
        <mxCell id="i9rH-VH7goMe6gmp9oEX-151" value="" style="edgeStyle=orthogonalEdgeStyle;rounded=0;orthogonalLoop=1;jettySize=auto;html=1;" edge="1" parent="1" source="i9rH-VH7goMe6gmp9oEX-148" target="i9rH-VH7goMe6gmp9oEX-150">
          <mxGeometry relative="1" as="geometry" />
        </mxCell>
        <mxCell id="i9rH-VH7goMe6gmp9oEX-148" value="&amp;nbsp;use_data(&quot;save_file.json&quot;)" style="shape=process;whiteSpace=wrap;html=1;backgroundOutline=1;" vertex="1" parent="1">
          <mxGeometry x="3350" y="78" width="182" height="60" as="geometry" />
        </mxCell>
        <mxCell id="i9rH-VH7goMe6gmp9oEX-155" value="" style="edgeStyle=orthogonalEdgeStyle;rounded=0;orthogonalLoop=1;jettySize=auto;html=1;" edge="1" parent="1" source="i9rH-VH7goMe6gmp9oEX-150" target="i9rH-VH7goMe6gmp9oEX-154">
          <mxGeometry relative="1" as="geometry" />
        </mxCell>
        <mxCell id="i9rH-VH7goMe6gmp9oEX-150" value="store the above function as &lt;i&gt;saved_data&lt;/i&gt;" style="rounded=1;whiteSpace=wrap;html=1;absoluteArcSize=1;arcSize=14;strokeWidth=2;" vertex="1" parent="1">
          <mxGeometry x="3362" y="161" width="158" height="33" as="geometry" />
        </mxCell>
        <mxCell id="i9rH-VH7goMe6gmp9oEX-157" value="" style="edgeStyle=orthogonalEdgeStyle;rounded=0;orthogonalLoop=1;jettySize=auto;html=1;" edge="1" parent="1" source="i9rH-VH7goMe6gmp9oEX-154" target="i9rH-VH7goMe6gmp9oEX-156">
          <mxGeometry relative="1" as="geometry" />
        </mxCell>
        <mxCell id="i9rH-VH7goMe6gmp9oEX-154" value="blank_game = False" style="rounded=1;whiteSpace=wrap;html=1;absoluteArcSize=1;arcSize=14;strokeWidth=2;" vertex="1" parent="1">
          <mxGeometry x="3362" y="217" width="158" height="33" as="geometry" />
        </mxCell>
        <mxCell id="i9rH-VH7goMe6gmp9oEX-161" value="" style="edgeStyle=orthogonalEdgeStyle;rounded=0;orthogonalLoop=1;jettySize=auto;html=1;" edge="1" parent="1" source="i9rH-VH7goMe6gmp9oEX-156" target="i9rH-VH7goMe6gmp9oEX-160">
          <mxGeometry relative="1" as="geometry">
            <Array as="points">
              <mxPoint x="3587" y="338" />
              <mxPoint x="3587" y="217" />
            </Array>
          </mxGeometry>
        </mxCell>
        <mxCell id="i9rH-VH7goMe6gmp9oEX-162" value="Yes" style="edgeLabel;html=1;align=center;verticalAlign=middle;resizable=0;points=[];" vertex="1" connectable="0" parent="i9rH-VH7goMe6gmp9oEX-161">
          <mxGeometry x="-0.3613" y="1" relative="1" as="geometry">
            <mxPoint as="offset" />
          </mxGeometry>
        </mxCell>
        <mxCell id="i9rH-VH7goMe6gmp9oEX-175" value="" style="edgeStyle=orthogonalEdgeStyle;rounded=0;orthogonalLoop=1;jettySize=auto;html=1;" edge="1" parent="1" source="i9rH-VH7goMe6gmp9oEX-156" target="i9rH-VH7goMe6gmp9oEX-174">
          <mxGeometry relative="1" as="geometry" />
        </mxCell>
        <mxCell id="i9rH-VH7goMe6gmp9oEX-156" value="was the function above&lt;div&gt;succesful?&lt;/div&gt;&lt;div&gt;(i.e. is &lt;i&gt;saved_data&amp;nbsp;&lt;/i&gt;&lt;/div&gt;&lt;div&gt;&lt;i&gt;not none)&lt;/i&gt;&lt;/div&gt;" style="rhombus;whiteSpace=wrap;html=1;rounded=1;arcSize=14;strokeWidth=2;" vertex="1" parent="1">
          <mxGeometry x="3338" y="283.39" width="206" height="109" as="geometry" />
        </mxCell>
        <mxCell id="i9rH-VH7goMe6gmp9oEX-164" value="" style="edgeStyle=orthogonalEdgeStyle;rounded=0;orthogonalLoop=1;jettySize=auto;html=1;exitX=0.32;exitY=0.834;exitDx=0;exitDy=0;exitPerimeter=0;" edge="1" parent="1" source="i9rH-VH7goMe6gmp9oEX-160" target="i9rH-VH7goMe6gmp9oEX-163">
          <mxGeometry relative="1" as="geometry">
            <Array as="points">
              <mxPoint x="3680" y="251" />
              <mxPoint x="3680" y="271" />
              <mxPoint x="3650" y="271" />
            </Array>
          </mxGeometry>
        </mxCell>
        <mxCell id="i9rH-VH7goMe6gmp9oEX-168" value="yes" style="edgeLabel;html=1;align=center;verticalAlign=middle;resizable=0;points=[];" vertex="1" connectable="0" parent="i9rH-VH7goMe6gmp9oEX-164">
          <mxGeometry x="-0.7299" y="-1" relative="1" as="geometry">
            <mxPoint x="-33" y="32" as="offset" />
          </mxGeometry>
        </mxCell>
        <mxCell id="i9rH-VH7goMe6gmp9oEX-165" style="edgeStyle=orthogonalEdgeStyle;rounded=0;orthogonalLoop=1;jettySize=auto;html=1;entryX=0.5;entryY=0;entryDx=0;entryDy=0;exitX=0.644;exitY=0.864;exitDx=0;exitDy=0;exitPerimeter=0;" edge="1" parent="1" source="i9rH-VH7goMe6gmp9oEX-160" target="i9rH-VH7goMe6gmp9oEX-166">
          <mxGeometry relative="1" as="geometry">
            <mxPoint x="3795" y="419.03571428571433" as="targetPoint" />
            <Array as="points">
              <mxPoint x="3728" y="271" />
              <mxPoint x="3796" y="271" />
            </Array>
          </mxGeometry>
        </mxCell>
        <mxCell id="i9rH-VH7goMe6gmp9oEX-167" value="No" style="edgeLabel;html=1;align=center;verticalAlign=middle;resizable=0;points=[];" vertex="1" connectable="0" parent="i9rH-VH7goMe6gmp9oEX-165">
          <mxGeometry x="0.1746" y="3" relative="1" as="geometry">
            <mxPoint x="-3" y="24" as="offset" />
          </mxGeometry>
        </mxCell>
        <mxCell id="i9rH-VH7goMe6gmp9oEX-160" value="is there a&lt;br&gt;non-empty entry for gueses?" style="strokeWidth=2;html=1;shape=mxgraph.flowchart.decision;whiteSpace=wrap;" vertex="1" parent="1">
          <mxGeometry x="3636.5" y="167.39" width="142" height="100" as="geometry" />
        </mxCell>
        <mxCell id="i9rH-VH7goMe6gmp9oEX-170" style="edgeStyle=orthogonalEdgeStyle;rounded=0;orthogonalLoop=1;jettySize=auto;html=1;entryX=0;entryY=0.5;entryDx=0;entryDy=0;exitX=0.25;exitY=1;exitDx=0;exitDy=0;" edge="1" parent="1" source="i9rH-VH7goMe6gmp9oEX-163" target="i9rH-VH7goMe6gmp9oEX-169">
          <mxGeometry relative="1" as="geometry" />
        </mxCell>
        <mxCell id="i9rH-VH7goMe6gmp9oEX-163" value="&lt;i&gt;guesses = &lt;/i&gt;entry for guesses in &lt;i&gt;saved data&lt;/i&gt;" style="whiteSpace=wrap;html=1;strokeWidth=2;" vertex="1" parent="1">
          <mxGeometry x="3590" y="347.3099999999998" width="120" height="60" as="geometry" />
        </mxCell>
        <mxCell id="i9rH-VH7goMe6gmp9oEX-171" style="edgeStyle=orthogonalEdgeStyle;rounded=0;orthogonalLoop=1;jettySize=auto;html=1;entryX=1;entryY=0.5;entryDx=0;entryDy=0;exitX=0.75;exitY=1;exitDx=0;exitDy=0;" edge="1" parent="1" source="i9rH-VH7goMe6gmp9oEX-166" target="i9rH-VH7goMe6gmp9oEX-169">
          <mxGeometry relative="1" as="geometry" />
        </mxCell>
        <mxCell id="i9rH-VH7goMe6gmp9oEX-166" value="&lt;i&gt;guesses = &lt;/i&gt;empty set" style="whiteSpace=wrap;html=1;strokeWidth=2;" vertex="1" parent="1">
          <mxGeometry x="3736" y="347.3099999999998" width="120" height="60" as="geometry" />
        </mxCell>
        <mxCell id="i9rH-VH7goMe6gmp9oEX-173" value="" style="edgeStyle=orthogonalEdgeStyle;rounded=0;orthogonalLoop=1;jettySize=auto;html=1;" edge="1" parent="1" source="i9rH-VH7goMe6gmp9oEX-169" target="i9rH-VH7goMe6gmp9oEX-172">
          <mxGeometry relative="1" as="geometry" />
        </mxCell>
        <mxCell id="i9rH-VH7goMe6gmp9oEX-169" value="&lt;i&gt;word =&lt;/i&gt;&amp;nbsp;entry for target word in the save file" style="whiteSpace=wrap;html=1;strokeWidth=2;" vertex="1" parent="1">
          <mxGeometry x="3663" y="444.9999999999998" width="120" height="60" as="geometry" />
        </mxCell>
        <mxCell id="i9rH-VH7goMe6gmp9oEX-181" value="" style="edgeStyle=orthogonalEdgeStyle;rounded=0;orthogonalLoop=1;jettySize=auto;html=1;" edge="1" parent="1" source="i9rH-VH7goMe6gmp9oEX-172" target="i9rH-VH7goMe6gmp9oEX-180">
          <mxGeometry relative="1" as="geometry" />
        </mxCell>
        <mxCell id="i9rH-VH7goMe6gmp9oEX-172" value="&lt;i&gt;points = &lt;/i&gt;save file entry for points" style="whiteSpace=wrap;html=1;strokeWidth=2;" vertex="1" parent="1">
          <mxGeometry x="3663" y="533.3799999999998" width="120" height="60" as="geometry" />
        </mxCell>
        <mxCell id="i9rH-VH7goMe6gmp9oEX-177" value="" style="edgeStyle=orthogonalEdgeStyle;rounded=0;orthogonalLoop=1;jettySize=auto;html=1;" edge="1" parent="1" source="i9rH-VH7goMe6gmp9oEX-174" target="i9rH-VH7goMe6gmp9oEX-176">
          <mxGeometry relative="1" as="geometry" />
        </mxCell>
        <mxCell id="i9rH-VH7goMe6gmp9oEX-174" value="display:&lt;div&gt;save file can not be found, creating new save file&lt;/div&gt;" style="shape=parallelogram;perimeter=parallelogramPerimeter;whiteSpace=wrap;html=1;fixedSize=1;rounded=1;arcSize=14;strokeWidth=2;" vertex="1" parent="1">
          <mxGeometry x="3351" y="420.25" width="180" height="60" as="geometry" />
        </mxCell>
        <mxCell id="i9rH-VH7goMe6gmp9oEX-179" value="" style="edgeStyle=orthogonalEdgeStyle;rounded=0;orthogonalLoop=1;jettySize=auto;html=1;" edge="1" parent="1" source="i9rH-VH7goMe6gmp9oEX-176" target="i9rH-VH7goMe6gmp9oEX-178">
          <mxGeometry relative="1" as="geometry" />
        </mxCell>
        <mxCell id="i9rH-VH7goMe6gmp9oEX-176" value="use_data(&quot;save_file.json&quot;, state=&quot;x&quot;,data = {&quot;word&quot;: &quot;&quot;, &quot;points&quot;: 0, &quot;guesses&quot;: []})&lt;div&gt;# Just creating a new file, with a template for a save file&lt;/div&gt;" style="shape=process;whiteSpace=wrap;html=1;backgroundOutline=1;" vertex="1" parent="1">
          <mxGeometry x="3339.5" y="519.75" width="203" height="103" as="geometry" />
        </mxCell>
        <mxCell id="i9rH-VH7goMe6gmp9oEX-184" value="" style="edgeStyle=orthogonalEdgeStyle;rounded=0;orthogonalLoop=1;jettySize=auto;html=1;" edge="1" parent="1" source="i9rH-VH7goMe6gmp9oEX-178">
          <mxGeometry relative="1" as="geometry">
            <mxPoint x="3441" y="728.4999999999998" as="targetPoint" />
          </mxGeometry>
        </mxCell>
        <mxCell id="i9rH-VH7goMe6gmp9oEX-178" value="blank_game = True" style="whiteSpace=wrap;html=1;" vertex="1" parent="1">
          <mxGeometry x="3381" y="641" width="120" height="60" as="geometry" />
        </mxCell>
        <mxCell id="i9rH-VH7goMe6gmp9oEX-182" style="edgeStyle=orthogonalEdgeStyle;rounded=0;orthogonalLoop=1;jettySize=auto;html=1;entryX=1;entryY=0.5;entryDx=0;entryDy=0;exitX=0;exitY=0.5;exitDx=0;exitDy=0;" edge="1" parent="1" source="i9rH-VH7goMe6gmp9oEX-180" target="i9rH-VH7goMe6gmp9oEX-178">
          <mxGeometry relative="1" as="geometry">
            <Array as="points">
              <mxPoint x="3596" y="660" />
              <mxPoint x="3596" y="692" />
              <mxPoint x="3535" y="692" />
              <mxPoint x="3535" y="671" />
            </Array>
          </mxGeometry>
        </mxCell>
        <mxCell id="i9rH-VH7goMe6gmp9oEX-192" value="Yes" style="edgeLabel;html=1;align=center;verticalAlign=middle;resizable=0;points=[];" vertex="1" connectable="0" parent="i9rH-VH7goMe6gmp9oEX-182">
          <mxGeometry x="-0.1479" y="2" relative="1" as="geometry">
            <mxPoint as="offset" />
          </mxGeometry>
        </mxCell>
        <mxCell id="i9rH-VH7goMe6gmp9oEX-191" style="edgeStyle=orthogonalEdgeStyle;rounded=0;orthogonalLoop=1;jettySize=auto;html=1;entryX=0.5;entryY=0;entryDx=0;entryDy=0;" edge="1" parent="1" source="i9rH-VH7goMe6gmp9oEX-180" target="i9rH-VH7goMe6gmp9oEX-190">
          <mxGeometry relative="1" as="geometry" />
        </mxCell>
        <mxCell id="i9rH-VH7goMe6gmp9oEX-193" value="No" style="edgeLabel;html=1;align=center;verticalAlign=middle;resizable=0;points=[];" vertex="1" connectable="0" parent="i9rH-VH7goMe6gmp9oEX-191">
          <mxGeometry x="-0.1698" y="2" relative="1" as="geometry">
            <mxPoint as="offset" />
          </mxGeometry>
        </mxCell>
        <mxCell id="i9rH-VH7goMe6gmp9oEX-180" value="Is the game currrently blank?" style="rhombus;whiteSpace=wrap;html=1;strokeWidth=2;" vertex="1" parent="1">
          <mxGeometry x="3667.5" y="620" width="111" height="80" as="geometry" />
        </mxCell>
        <mxCell id="i9rH-VH7goMe6gmp9oEX-187" value="" style="edgeStyle=orthogonalEdgeStyle;rounded=0;orthogonalLoop=1;jettySize=auto;html=1;" edge="1" parent="1" target="i9rH-VH7goMe6gmp9oEX-186">
          <mxGeometry relative="1" as="geometry">
            <mxPoint x="3441" y="788.4999999999998" as="sourcePoint" />
          </mxGeometry>
        </mxCell>
        <mxCell id="i9rH-VH7goMe6gmp9oEX-183" value="display:&lt;div&gt;starting a new game&lt;/div&gt;" style="shape=parallelogram;perimeter=parallelogramPerimeter;whiteSpace=wrap;html=1;fixedSize=1;rounded=1;arcSize=14;strokeWidth=2;" vertex="1" parent="1">
          <mxGeometry x="3351" y="726.5" width="180" height="60" as="geometry" />
        </mxCell>
        <mxCell id="i9rH-VH7goMe6gmp9oEX-189" value="" style="edgeStyle=orthogonalEdgeStyle;rounded=0;orthogonalLoop=1;jettySize=auto;html=1;entryX=0;entryY=0.5;entryDx=0;entryDy=0;" edge="1" parent="1" source="i9rH-VH7goMe6gmp9oEX-186" target="i9rH-VH7goMe6gmp9oEX-190">
          <mxGeometry relative="1" as="geometry">
            <mxPoint x="3581" y="868.25" as="targetPoint" />
          </mxGeometry>
        </mxCell>
        <mxCell id="i9rH-VH7goMe6gmp9oEX-186" value="choose_dif()" style="shape=process;whiteSpace=wrap;html=1;backgroundOutline=1;" vertex="1" parent="1">
          <mxGeometry x="3381" y="815.5" width="120" height="60" as="geometry" />
        </mxCell>
        <mxCell id="i9rH-VH7goMe6gmp9oEX-195" value="" style="edgeStyle=orthogonalEdgeStyle;rounded=0;orthogonalLoop=1;jettySize=auto;html=1;" edge="1" parent="1" source="i9rH-VH7goMe6gmp9oEX-190" target="i9rH-VH7goMe6gmp9oEX-194">
          <mxGeometry relative="1" as="geometry" />
        </mxCell>
        <mxCell id="i9rH-VH7goMe6gmp9oEX-190" value="initalize a hangman class based on provided word, points,and or gueses" style="rounded=1;whiteSpace=wrap;html=1;absoluteArcSize=1;arcSize=14;strokeWidth=2;" vertex="1" parent="1">
          <mxGeometry x="3623" y="750.5" width="200" height="70" as="geometry" />
        </mxCell>
        <mxCell id="i9rH-VH7goMe6gmp9oEX-194" value="return&lt;div&gt;new hangman game&lt;/div&gt;" style="strokeWidth=2;html=1;shape=mxgraph.flowchart.start_2;whiteSpace=wrap;" vertex="1" parent="1">
          <mxGeometry x="3867" y="751.25" width="100" height="60" as="geometry" />
        </mxCell>
        <mxCell id="i9rH-VH7goMe6gmp9oEX-198" value="" style="edgeStyle=orthogonalEdgeStyle;rounded=0;orthogonalLoop=1;jettySize=auto;html=1;" edge="1" parent="1" source="i9rH-VH7goMe6gmp9oEX-196" target="i9rH-VH7goMe6gmp9oEX-197">
          <mxGeometry relative="1" as="geometry" />
        </mxCell>
        <mxCell id="i9rH-VH7goMe6gmp9oEX-196" value="save_game_data()" style="strokeWidth=2;html=1;shape=mxgraph.flowchart.start_2;whiteSpace=wrap;" vertex="1" parent="1">
          <mxGeometry x="3731" y="26.89" width="153" height="60" as="geometry" />
        </mxCell>
        <mxCell id="i9rH-VH7goMe6gmp9oEX-200" value="" style="edgeStyle=orthogonalEdgeStyle;rounded=0;orthogonalLoop=1;jettySize=auto;html=1;" edge="1" parent="1" source="i9rH-VH7goMe6gmp9oEX-197" target="i9rH-VH7goMe6gmp9oEX-199">
          <mxGeometry relative="1" as="geometry" />
        </mxCell>
        <mxCell id="i9rH-VH7goMe6gmp9oEX-197" value="takes the following as arguments:&lt;div&gt;&lt;i&gt;game (an instance of a hangman class)&lt;/i&gt;&lt;/div&gt;" style="whiteSpace=wrap;html=1;strokeWidth=2;" vertex="1" parent="1">
          <mxGeometry x="3935" y="26.89" width="167.5" height="60" as="geometry" />
        </mxCell>
        <mxCell id="i9rH-VH7goMe6gmp9oEX-202" value="" style="edgeStyle=orthogonalEdgeStyle;rounded=0;orthogonalLoop=1;jettySize=auto;html=1;" edge="1" parent="1" source="i9rH-VH7goMe6gmp9oEX-199" target="i9rH-VH7goMe6gmp9oEX-201">
          <mxGeometry relative="1" as="geometry" />
        </mxCell>
        <mxCell id="i9rH-VH7goMe6gmp9oEX-199" value="create a dictionary with values for &lt;i&gt;word, points, guesses&lt;/i&gt;" style="whiteSpace=wrap;html=1;strokeWidth=2;" vertex="1" parent="1">
          <mxGeometry x="3958.75" y="113.89" width="120" height="60" as="geometry" />
        </mxCell>
        <mxCell id="i9rH-VH7goMe6gmp9oEX-201" value="use_data(&quot;save_file.json&quot;, state=&quot;w&quot;, data=save_data)&lt;div&gt;# overwrite save file&lt;/div&gt;" style="shape=process;whiteSpace=wrap;html=1;backgroundOutline=1;" vertex="1" parent="1">
          <mxGeometry x="3928.75" y="196.89" width="180" height="60" as="geometry" />
        </mxCell>
        <mxCell id="i9rH-VH7goMe6gmp9oEX-239" value="&lt;font style=&quot;font-size: 14px;&quot;&gt;main_loop()&lt;/font&gt;" style="ellipse;whiteSpace=wrap;html=1;" vertex="1" parent="1">
          <mxGeometry x="170" y="111.56" width="120" height="80" as="geometry" />
        </mxCell>
        <mxCell id="i9rH-VH7goMe6gmp9oEX-240" value="" style="edgeStyle=orthogonalEdgeStyle;rounded=0;orthogonalLoop=1;jettySize=auto;html=1;exitX=0.5;exitY=1;exitDx=0;exitDy=0;" edge="1" parent="1" source="i9rH-VH7goMe6gmp9oEX-239" target="i9rH-VH7goMe6gmp9oEX-243">
          <mxGeometry relative="1" as="geometry">
            <mxPoint x="230" y="210" as="sourcePoint" />
          </mxGeometry>
        </mxCell>
        <mxCell id="i9rH-VH7goMe6gmp9oEX-242" value="" style="edgeStyle=orthogonalEdgeStyle;rounded=0;orthogonalLoop=1;jettySize=auto;html=1;" edge="1" parent="1" source="i9rH-VH7goMe6gmp9oEX-243" target="i9rH-VH7goMe6gmp9oEX-245">
          <mxGeometry relative="1" as="geometry" />
        </mxCell>
        <mxCell id="i9rH-VH7goMe6gmp9oEX-243" value="ask the user: &quot;What is your guess?" style="shape=parallelogram;html=1;strokeWidth=2;perimeter=parallelogramPerimeter;whiteSpace=wrap;rounded=1;arcSize=11;size=0.15000000000000002;" vertex="1" parent="1">
          <mxGeometry x="180" y="245" width="100" height="83" as="geometry" />
        </mxCell>
        <mxCell id="i9rH-VH7goMe6gmp9oEX-274" value="" style="edgeStyle=orthogonalEdgeStyle;rounded=0;orthogonalLoop=1;jettySize=auto;html=1;" edge="1" parent="1" source="i9rH-VH7goMe6gmp9oEX-245" target="i9rH-VH7goMe6gmp9oEX-273">
          <mxGeometry relative="1" as="geometry" />
        </mxCell>
        <mxCell id="i9rH-VH7goMe6gmp9oEX-245" value="check_guess(guess)" style="shape=process;whiteSpace=wrap;html=1;backgroundOutline=1;" vertex="1" parent="1">
          <mxGeometry x="339" y="256.5" width="170" height="60" as="geometry" />
        </mxCell>
        <mxCell id="i9rH-VH7goMe6gmp9oEX-246" value="" style="edgeStyle=orthogonalEdgeStyle;rounded=0;orthogonalLoop=1;jettySize=auto;html=1;" edge="1" parent="1" source="i9rH-VH7goMe6gmp9oEX-247" target="i9rH-VH7goMe6gmp9oEX-249">
          <mxGeometry relative="1" as="geometry" />
        </mxCell>
        <mxCell id="i9rH-VH7goMe6gmp9oEX-247" value="check_for_end()" style="shape=process;whiteSpace=wrap;html=1;backgroundOutline=1;" vertex="1" parent="1">
          <mxGeometry x="339" y="415.89" width="171" height="60" as="geometry" />
        </mxCell>
        <mxCell id="i9rH-VH7goMe6gmp9oEX-248" value="" style="edgeStyle=orthogonalEdgeStyle;rounded=0;orthogonalLoop=1;jettySize=auto;html=1;" edge="1" parent="1" source="i9rH-VH7goMe6gmp9oEX-249" target="i9rH-VH7goMe6gmp9oEX-256">
          <mxGeometry relative="1" as="geometry" />
        </mxCell>
        <mxCell id="i9rH-VH7goMe6gmp9oEX-249" value="Store tuple from check_for_end()&amp;nbsp;in a variable called &lt;i&gt;is_end&lt;/i&gt;" style="rounded=1;whiteSpace=wrap;html=1;absoluteArcSize=1;arcSize=14;strokeWidth=2;" vertex="1" parent="1">
          <mxGeometry x="324" y="510.39" width="200" height="50" as="geometry" />
        </mxCell>
        <mxCell id="i9rH-VH7goMe6gmp9oEX-250" value="" style="edgeStyle=orthogonalEdgeStyle;rounded=0;orthogonalLoop=1;jettySize=auto;html=1;" edge="1" parent="1" source="i9rH-VH7goMe6gmp9oEX-256" target="i9rH-VH7goMe6gmp9oEX-261">
          <mxGeometry relative="1" as="geometry" />
        </mxCell>
        <mxCell id="i9rH-VH7goMe6gmp9oEX-251" value="Yes" style="edgeLabel;html=1;align=center;verticalAlign=middle;resizable=0;points=[];" vertex="1" connectable="0" parent="i9rH-VH7goMe6gmp9oEX-250">
          <mxGeometry x="-0.4996" relative="1" as="geometry">
            <mxPoint as="offset" />
          </mxGeometry>
        </mxCell>
        <mxCell id="i9rH-VH7goMe6gmp9oEX-252" style="edgeStyle=orthogonalEdgeStyle;rounded=0;orthogonalLoop=1;jettySize=auto;html=1;entryX=0;entryY=0.25;entryDx=0;entryDy=0;exitX=1;exitY=0.5;exitDx=0;exitDy=0;" edge="1" parent="1" source="i9rH-VH7goMe6gmp9oEX-271" target="i9rH-VH7goMe6gmp9oEX-243">
          <mxGeometry relative="1" as="geometry">
            <Array as="points">
              <mxPoint x="484" y="743" />
              <mxPoint x="580" y="743" />
              <mxPoint x="580" y="890" />
              <mxPoint x="40" y="890" />
              <mxPoint x="40" y="270" />
            </Array>
          </mxGeometry>
        </mxCell>
        <mxCell id="i9rH-VH7goMe6gmp9oEX-253" value="No" style="edgeLabel;html=1;align=center;verticalAlign=middle;resizable=0;points=[];" vertex="1" connectable="0" parent="i9rH-VH7goMe6gmp9oEX-252">
          <mxGeometry x="-0.4146" y="3" relative="1" as="geometry">
            <mxPoint x="-117" y="-3" as="offset" />
          </mxGeometry>
        </mxCell>
        <mxCell id="i9rH-VH7goMe6gmp9oEX-254" value="" style="edgeStyle=orthogonalEdgeStyle;rounded=0;orthogonalLoop=1;jettySize=auto;html=1;" edge="1" parent="1" source="i9rH-VH7goMe6gmp9oEX-256" target="i9rH-VH7goMe6gmp9oEX-271">
          <mxGeometry relative="1" as="geometry" />
        </mxCell>
        <mxCell id="i9rH-VH7goMe6gmp9oEX-255" value="No" style="edgeLabel;html=1;align=center;verticalAlign=middle;resizable=0;points=[];" vertex="1" connectable="0" parent="i9rH-VH7goMe6gmp9oEX-254">
          <mxGeometry x="0.3416" relative="1" as="geometry">
            <mxPoint as="offset" />
          </mxGeometry>
        </mxCell>
        <mxCell id="i9rH-VH7goMe6gmp9oEX-256" value="if first term of tuple is True" style="strokeWidth=2;html=1;shape=mxgraph.flowchart.decision;whiteSpace=wrap;" vertex="1" parent="1">
          <mxGeometry x="331" y="582.39" width="186" height="100" as="geometry" />
        </mxCell>
        <mxCell id="i9rH-VH7goMe6gmp9oEX-257" value="" style="edgeStyle=orthogonalEdgeStyle;rounded=0;orthogonalLoop=1;jettySize=auto;html=1;" edge="1" parent="1" source="i9rH-VH7goMe6gmp9oEX-261" target="i9rH-VH7goMe6gmp9oEX-266">
          <mxGeometry relative="1" as="geometry" />
        </mxCell>
        <mxCell id="i9rH-VH7goMe6gmp9oEX-258" value="No" style="edgeLabel;html=1;align=center;verticalAlign=middle;resizable=0;points=[];" vertex="1" connectable="0" parent="i9rH-VH7goMe6gmp9oEX-257">
          <mxGeometry x="0.3462" y="-2" relative="1" as="geometry">
            <mxPoint as="offset" />
          </mxGeometry>
        </mxCell>
        <mxCell id="i9rH-VH7goMe6gmp9oEX-259" value="" style="edgeStyle=orthogonalEdgeStyle;rounded=0;orthogonalLoop=1;jettySize=auto;html=1;" edge="1" parent="1" source="i9rH-VH7goMe6gmp9oEX-261" target="i9rH-VH7goMe6gmp9oEX-270">
          <mxGeometry relative="1" as="geometry" />
        </mxCell>
        <mxCell id="i9rH-VH7goMe6gmp9oEX-260" value="Yes" style="edgeLabel;html=1;align=center;verticalAlign=middle;resizable=0;points=[];" vertex="1" connectable="0" parent="i9rH-VH7goMe6gmp9oEX-259">
          <mxGeometry x="0.1806" y="1" relative="1" as="geometry">
            <mxPoint as="offset" />
          </mxGeometry>
        </mxCell>
        <mxCell id="i9rH-VH7goMe6gmp9oEX-261" value="Is the second term &quot;W&quot;?" style="strokeWidth=2;html=1;shape=mxgraph.flowchart.decision;whiteSpace=wrap;" vertex="1" parent="1">
          <mxGeometry x="200" y="582.39" width="100" height="100" as="geometry" />
        </mxCell>
        <mxCell id="i9rH-VH7goMe6gmp9oEX-262" value="" style="edgeStyle=orthogonalEdgeStyle;rounded=0;orthogonalLoop=1;jettySize=auto;html=1;" edge="1" parent="1" source="i9rH-VH7goMe6gmp9oEX-266" target="i9rH-VH7goMe6gmp9oEX-268">
          <mxGeometry relative="1" as="geometry" />
        </mxCell>
        <mxCell id="i9rH-VH7goMe6gmp9oEX-263" value="Yes" style="edgeLabel;html=1;align=center;verticalAlign=middle;resizable=0;points=[];" vertex="1" connectable="0" parent="i9rH-VH7goMe6gmp9oEX-262">
          <mxGeometry x="0.1289" relative="1" as="geometry">
            <mxPoint as="offset" />
          </mxGeometry>
        </mxCell>
        <mxCell id="i9rH-VH7goMe6gmp9oEX-264" style="edgeStyle=orthogonalEdgeStyle;rounded=0;orthogonalLoop=1;jettySize=auto;html=1;entryX=0;entryY=0.5;entryDx=0;entryDy=0;" edge="1" parent="1" source="i9rH-VH7goMe6gmp9oEX-266" target="i9rH-VH7goMe6gmp9oEX-243">
          <mxGeometry relative="1" as="geometry">
            <Array as="points">
              <mxPoint x="120" y="287" />
            </Array>
          </mxGeometry>
        </mxCell>
        <mxCell id="i9rH-VH7goMe6gmp9oEX-265" value="No" style="edgeLabel;html=1;align=center;verticalAlign=middle;resizable=0;points=[];" vertex="1" connectable="0" parent="i9rH-VH7goMe6gmp9oEX-264">
          <mxGeometry x="-0.3417" relative="1" as="geometry">
            <mxPoint as="offset" />
          </mxGeometry>
        </mxCell>
        <mxCell id="i9rH-VH7goMe6gmp9oEX-266" value="Is the second term &quot;L&quot;?" style="strokeWidth=2;html=1;shape=mxgraph.flowchart.decision;whiteSpace=wrap;" vertex="1" parent="1">
          <mxGeometry x="70" y="582.39" width="100" height="100" as="geometry" />
        </mxCell>
        <mxCell id="i9rH-VH7goMe6gmp9oEX-267" value="" style="edgeStyle=orthogonalEdgeStyle;rounded=0;orthogonalLoop=1;jettySize=auto;html=1;" edge="1" parent="1" source="i9rH-VH7goMe6gmp9oEX-268" target="i9rH-VH7goMe6gmp9oEX-272">
          <mxGeometry relative="1" as="geometry" />
        </mxCell>
        <mxCell id="i9rH-VH7goMe6gmp9oEX-268" value="Display&amp;nbsp;&lt;div&gt;&quot;You lost&quot;&lt;/div&gt;" style="shape=parallelogram;html=1;strokeWidth=2;perimeter=parallelogramPerimeter;whiteSpace=wrap;rounded=1;arcSize=12;size=0.23;" vertex="1" parent="1">
          <mxGeometry x="70" y="709.89" width="100" height="60" as="geometry" />
        </mxCell>
        <mxCell id="i9rH-VH7goMe6gmp9oEX-269" style="edgeStyle=orthogonalEdgeStyle;rounded=0;orthogonalLoop=1;jettySize=auto;html=1;entryX=0.5;entryY=0;entryDx=0;entryDy=0;" edge="1" parent="1" source="i9rH-VH7goMe6gmp9oEX-270" target="i9rH-VH7goMe6gmp9oEX-272">
          <mxGeometry relative="1" as="geometry" />
        </mxCell>
        <mxCell id="i9rH-VH7goMe6gmp9oEX-270" value="Display&lt;div&gt;&quot;You Won&quot;,&amp;nbsp;&lt;br&gt;&lt;/div&gt;" style="shape=parallelogram;html=1;strokeWidth=2;perimeter=parallelogramPerimeter;whiteSpace=wrap;rounded=1;arcSize=12;size=0.23;" vertex="1" parent="1">
          <mxGeometry x="200" y="709.89" width="100" height="60" as="geometry" />
        </mxCell>
        <mxCell id="i9rH-VH7goMe6gmp9oEX-271" value="render_word" style="shape=process;whiteSpace=wrap;html=1;backgroundOutline=1;" vertex="1" parent="1">
          <mxGeometry x="364" y="709.89" width="120" height="60" as="geometry" />
        </mxCell>
        <mxCell id="i9rH-VH7goMe6gmp9oEX-272" value="END" style="ellipse;whiteSpace=wrap;html=1;strokeWidth=2;rounded=1;arcSize=12;" vertex="1" parent="1">
          <mxGeometry x="140" y="833.39" width="80" height="80" as="geometry" />
        </mxCell>
        <mxCell id="i9rH-VH7goMe6gmp9oEX-275" value="" style="edgeStyle=orthogonalEdgeStyle;rounded=0;orthogonalLoop=1;jettySize=auto;html=1;" edge="1" parent="1" source="i9rH-VH7goMe6gmp9oEX-273" target="i9rH-VH7goMe6gmp9oEX-247">
          <mxGeometry relative="1" as="geometry" />
        </mxCell>
        <mxCell id="i9rH-VH7goMe6gmp9oEX-273" value="save_game_data()" style="shape=process;whiteSpace=wrap;html=1;backgroundOutline=1;" vertex="1" parent="1">
          <mxGeometry x="329" y="341.39" width="191" height="42" as="geometry" />
        </mxCell>
      </root>
    </mxGraphModel>
  </diagram>
</mxfile>
